%FSLAX45Y45*%
G04 Gerber Fmt 4.5, Leading zero omitted, Abs format (unit mm)*
G04 Created by KiCad (PCBNEW (6.0.5)) date 2022-07-03 19:07:29*
%MOMM*%
%LPD*%
G01*
G04 APERTURE LIST*
%TA.AperFunction,Profile*%
%ADD10C,0.100000*%
%TD*%
%ADD11C,0.200000*%
%ADD12C,0.090000*%
%ADD13C,0.270000*%
G04 APERTURE END LIST*
D10*
X14000000Y-7500000D02*
X14000000Y-11500000D01*
X20000000Y-7500000D02*
X20000000Y-11500000D01*
X15600000Y-14150000D02*
X18400000Y-14150000D01*
X18400000Y-14149999D02*
G75*
G03*
X20000000Y-11500000I-1394530J2649999D01*
G01*
X20000000Y-7500000D02*
G75*
G03*
X14000000Y-7500000I-3000000J-340D01*
G01*
X13999998Y-11500000D02*
G75*
G03*
X15600000Y-14150000I3002562J4850D01*
G01*
D11*
D12*
X19790500Y-8630000D02*
X19880500Y-8720000D01*
X19880500Y-8630000D02*
X19790500Y-8720000D01*
X19790500Y-8930000D02*
X19880500Y-9020000D01*
X19880500Y-8930000D02*
X19790500Y-9020000D01*
D13*
X14735000Y-11455000D02*
G75*
G03*
X14735000Y-11455000I-135000J0D01*
G01*
X18105000Y-10910000D02*
G75*
G03*
X18105000Y-10910000I-135000J0D01*
G01*
D11*
X14252619Y-14465476D02*
X14252619Y-14265476D01*
X14300238Y-14265476D01*
X14328809Y-14275000D01*
X14347857Y-14294048D01*
X14357381Y-14313095D01*
X14366905Y-14351190D01*
X14366905Y-14379762D01*
X14357381Y-14417857D01*
X14347857Y-14436905D01*
X14328809Y-14455952D01*
X14300238Y-14465476D01*
X14252619Y-14465476D01*
X14452619Y-14465476D02*
X14452619Y-14332143D01*
X14452619Y-14370238D02*
X14462143Y-14351190D01*
X14471667Y-14341667D01*
X14490714Y-14332143D01*
X14509762Y-14332143D01*
X14576428Y-14465476D02*
X14576428Y-14332143D01*
X14576428Y-14265476D02*
X14566905Y-14275000D01*
X14576428Y-14284524D01*
X14585952Y-14275000D01*
X14576428Y-14265476D01*
X14576428Y-14284524D01*
X14700238Y-14465476D02*
X14681190Y-14455952D01*
X14671667Y-14436905D01*
X14671667Y-14265476D01*
X14805000Y-14465476D02*
X14785952Y-14455952D01*
X14776428Y-14436905D01*
X14776428Y-14265476D01*
X15033571Y-14465476D02*
X15033571Y-14265476D01*
X15100238Y-14408333D01*
X15166905Y-14265476D01*
X15166905Y-14465476D01*
X15347857Y-14465476D02*
X15347857Y-14360714D01*
X15338333Y-14341667D01*
X15319286Y-14332143D01*
X15281190Y-14332143D01*
X15262143Y-14341667D01*
X15347857Y-14455952D02*
X15328809Y-14465476D01*
X15281190Y-14465476D01*
X15262143Y-14455952D01*
X15252619Y-14436905D01*
X15252619Y-14417857D01*
X15262143Y-14398809D01*
X15281190Y-14389286D01*
X15328809Y-14389286D01*
X15347857Y-14379762D01*
X15443095Y-14332143D02*
X15443095Y-14532143D01*
X15443095Y-14341667D02*
X15462143Y-14332143D01*
X15500238Y-14332143D01*
X15519286Y-14341667D01*
X15528809Y-14351190D01*
X15538333Y-14370238D01*
X15538333Y-14427381D01*
X15528809Y-14446428D01*
X15519286Y-14455952D01*
X15500238Y-14465476D01*
X15462143Y-14465476D01*
X15443095Y-14455952D01*
X15624048Y-14446428D02*
X15633571Y-14455952D01*
X15624048Y-14465476D01*
X15614524Y-14455952D01*
X15624048Y-14446428D01*
X15624048Y-14465476D01*
X15624048Y-14341667D02*
X15633571Y-14351190D01*
X15624048Y-14360714D01*
X15614524Y-14351190D01*
X15624048Y-14341667D01*
X15624048Y-14360714D01*
D12*
X13905000Y-14750000D02*
X13995000Y-14840000D01*
X13995000Y-14750000D02*
X13905000Y-14840000D01*
D11*
X14290714Y-14685476D02*
X14309762Y-14685476D01*
X14328809Y-14695000D01*
X14338333Y-14704524D01*
X14347857Y-14723571D01*
X14357381Y-14761667D01*
X14357381Y-14809286D01*
X14347857Y-14847381D01*
X14338333Y-14866428D01*
X14328809Y-14875952D01*
X14309762Y-14885476D01*
X14290714Y-14885476D01*
X14271667Y-14875952D01*
X14262143Y-14866428D01*
X14252619Y-14847381D01*
X14243095Y-14809286D01*
X14243095Y-14761667D01*
X14252619Y-14723571D01*
X14262143Y-14704524D01*
X14271667Y-14695000D01*
X14290714Y-14685476D01*
X14443095Y-14866428D02*
X14452619Y-14875952D01*
X14443095Y-14885476D01*
X14433571Y-14875952D01*
X14443095Y-14866428D01*
X14443095Y-14885476D01*
X14547857Y-14885476D02*
X14585952Y-14885476D01*
X14605000Y-14875952D01*
X14614524Y-14866428D01*
X14633571Y-14837857D01*
X14643095Y-14799762D01*
X14643095Y-14723571D01*
X14633571Y-14704524D01*
X14624048Y-14695000D01*
X14605000Y-14685476D01*
X14566905Y-14685476D01*
X14547857Y-14695000D01*
X14538333Y-14704524D01*
X14528809Y-14723571D01*
X14528809Y-14771190D01*
X14538333Y-14790238D01*
X14547857Y-14799762D01*
X14566905Y-14809286D01*
X14605000Y-14809286D01*
X14624048Y-14799762D01*
X14633571Y-14790238D01*
X14643095Y-14771190D01*
X14766905Y-14685476D02*
X14785952Y-14685476D01*
X14805000Y-14695000D01*
X14814524Y-14704524D01*
X14824048Y-14723571D01*
X14833571Y-14761667D01*
X14833571Y-14809286D01*
X14824048Y-14847381D01*
X14814524Y-14866428D01*
X14805000Y-14875952D01*
X14785952Y-14885476D01*
X14766905Y-14885476D01*
X14747857Y-14875952D01*
X14738333Y-14866428D01*
X14728809Y-14847381D01*
X14719286Y-14809286D01*
X14719286Y-14761667D01*
X14728809Y-14723571D01*
X14738333Y-14704524D01*
X14747857Y-14695000D01*
X14766905Y-14685476D01*
X14957381Y-14685476D02*
X14976428Y-14685476D01*
X14995476Y-14695000D01*
X15005000Y-14704524D01*
X15014524Y-14723571D01*
X15024048Y-14761667D01*
X15024048Y-14809286D01*
X15014524Y-14847381D01*
X15005000Y-14866428D01*
X14995476Y-14875952D01*
X14976428Y-14885476D01*
X14957381Y-14885476D01*
X14938333Y-14875952D01*
X14928809Y-14866428D01*
X14919286Y-14847381D01*
X14909762Y-14809286D01*
X14909762Y-14761667D01*
X14919286Y-14723571D01*
X14928809Y-14704524D01*
X14938333Y-14695000D01*
X14957381Y-14685476D01*
X15109762Y-14885476D02*
X15109762Y-14752143D01*
X15109762Y-14771190D02*
X15119286Y-14761667D01*
X15138333Y-14752143D01*
X15166905Y-14752143D01*
X15185952Y-14761667D01*
X15195476Y-14780714D01*
X15195476Y-14885476D01*
X15195476Y-14780714D02*
X15205000Y-14761667D01*
X15224048Y-14752143D01*
X15252619Y-14752143D01*
X15271667Y-14761667D01*
X15281190Y-14780714D01*
X15281190Y-14885476D01*
X15376428Y-14885476D02*
X15376428Y-14752143D01*
X15376428Y-14771190D02*
X15385952Y-14761667D01*
X15405000Y-14752143D01*
X15433571Y-14752143D01*
X15452619Y-14761667D01*
X15462143Y-14780714D01*
X15462143Y-14885476D01*
X15462143Y-14780714D02*
X15471667Y-14761667D01*
X15490714Y-14752143D01*
X15519286Y-14752143D01*
X15538333Y-14761667D01*
X15547857Y-14780714D01*
X15547857Y-14885476D01*
X15938333Y-14675952D02*
X15766905Y-14933095D01*
X16195476Y-14685476D02*
X16214524Y-14685476D01*
X16233571Y-14695000D01*
X16243095Y-14704524D01*
X16252619Y-14723571D01*
X16262143Y-14761667D01*
X16262143Y-14809286D01*
X16252619Y-14847381D01*
X16243095Y-14866428D01*
X16233571Y-14875952D01*
X16214524Y-14885476D01*
X16195476Y-14885476D01*
X16176428Y-14875952D01*
X16166905Y-14866428D01*
X16157381Y-14847381D01*
X16147857Y-14809286D01*
X16147857Y-14761667D01*
X16157381Y-14723571D01*
X16166905Y-14704524D01*
X16176428Y-14695000D01*
X16195476Y-14685476D01*
X16347857Y-14866428D02*
X16357381Y-14875952D01*
X16347857Y-14885476D01*
X16338333Y-14875952D01*
X16347857Y-14866428D01*
X16347857Y-14885476D01*
X16481190Y-14685476D02*
X16500238Y-14685476D01*
X16519286Y-14695000D01*
X16528809Y-14704524D01*
X16538333Y-14723571D01*
X16547857Y-14761667D01*
X16547857Y-14809286D01*
X16538333Y-14847381D01*
X16528809Y-14866428D01*
X16519286Y-14875952D01*
X16500238Y-14885476D01*
X16481190Y-14885476D01*
X16462143Y-14875952D01*
X16452619Y-14866428D01*
X16443095Y-14847381D01*
X16433571Y-14809286D01*
X16433571Y-14761667D01*
X16443095Y-14723571D01*
X16452619Y-14704524D01*
X16462143Y-14695000D01*
X16481190Y-14685476D01*
X16614524Y-14685476D02*
X16738333Y-14685476D01*
X16671667Y-14761667D01*
X16700238Y-14761667D01*
X16719286Y-14771190D01*
X16728809Y-14780714D01*
X16738333Y-14799762D01*
X16738333Y-14847381D01*
X16728809Y-14866428D01*
X16719286Y-14875952D01*
X16700238Y-14885476D01*
X16643095Y-14885476D01*
X16624048Y-14875952D01*
X16614524Y-14866428D01*
X16919286Y-14685476D02*
X16824048Y-14685476D01*
X16814524Y-14780714D01*
X16824048Y-14771190D01*
X16843095Y-14761667D01*
X16890714Y-14761667D01*
X16909762Y-14771190D01*
X16919286Y-14780714D01*
X16928810Y-14799762D01*
X16928810Y-14847381D01*
X16919286Y-14866428D01*
X16909762Y-14875952D01*
X16890714Y-14885476D01*
X16843095Y-14885476D01*
X16824048Y-14875952D01*
X16814524Y-14866428D01*
X17100238Y-14752143D02*
X17100238Y-14885476D01*
X17052619Y-14675952D02*
X17005000Y-14818809D01*
X17128810Y-14818809D01*
X17195476Y-14685476D02*
X17195476Y-14723571D01*
X17271667Y-14685476D02*
X17271667Y-14723571D01*
X17566905Y-14961667D02*
X17557381Y-14952143D01*
X17538333Y-14923571D01*
X17528810Y-14904524D01*
X17519286Y-14875952D01*
X17509762Y-14828333D01*
X17509762Y-14790238D01*
X17519286Y-14742619D01*
X17528810Y-14714048D01*
X17538333Y-14695000D01*
X17557381Y-14666428D01*
X17566905Y-14656905D01*
X17633571Y-14704524D02*
X17643095Y-14695000D01*
X17662143Y-14685476D01*
X17709762Y-14685476D01*
X17728810Y-14695000D01*
X17738333Y-14704524D01*
X17747857Y-14723571D01*
X17747857Y-14742619D01*
X17738333Y-14771190D01*
X17624048Y-14885476D01*
X17747857Y-14885476D01*
X17985952Y-14885476D02*
X17985952Y-14685476D01*
X18071667Y-14885476D02*
X18071667Y-14780714D01*
X18062143Y-14761667D01*
X18043095Y-14752143D01*
X18014524Y-14752143D01*
X17995476Y-14761667D01*
X17985952Y-14771190D01*
X18195476Y-14885476D02*
X18176429Y-14875952D01*
X18166905Y-14866428D01*
X18157381Y-14847381D01*
X18157381Y-14790238D01*
X18166905Y-14771190D01*
X18176429Y-14761667D01*
X18195476Y-14752143D01*
X18224048Y-14752143D01*
X18243095Y-14761667D01*
X18252619Y-14771190D01*
X18262143Y-14790238D01*
X18262143Y-14847381D01*
X18252619Y-14866428D01*
X18243095Y-14875952D01*
X18224048Y-14885476D01*
X18195476Y-14885476D01*
X18376429Y-14885476D02*
X18357381Y-14875952D01*
X18347857Y-14856905D01*
X18347857Y-14685476D01*
X18528810Y-14875952D02*
X18509762Y-14885476D01*
X18471667Y-14885476D01*
X18452619Y-14875952D01*
X18443095Y-14856905D01*
X18443095Y-14780714D01*
X18452619Y-14761667D01*
X18471667Y-14752143D01*
X18509762Y-14752143D01*
X18528810Y-14761667D01*
X18538333Y-14780714D01*
X18538333Y-14799762D01*
X18443095Y-14818809D01*
X18614524Y-14875952D02*
X18633571Y-14885476D01*
X18671667Y-14885476D01*
X18690714Y-14875952D01*
X18700238Y-14856905D01*
X18700238Y-14847381D01*
X18690714Y-14828333D01*
X18671667Y-14818809D01*
X18643095Y-14818809D01*
X18624048Y-14809286D01*
X18614524Y-14790238D01*
X18614524Y-14780714D01*
X18624048Y-14761667D01*
X18643095Y-14752143D01*
X18671667Y-14752143D01*
X18690714Y-14761667D01*
X18766905Y-14961667D02*
X18776429Y-14952143D01*
X18795476Y-14923571D01*
X18805000Y-14904524D01*
X18814524Y-14875952D01*
X18824048Y-14828333D01*
X18824048Y-14790238D01*
X18814524Y-14742619D01*
X18805000Y-14714048D01*
X18795476Y-14695000D01*
X18776429Y-14666428D01*
X18766905Y-14656905D01*
X19128810Y-14961667D02*
X19119286Y-14952143D01*
X19100238Y-14923571D01*
X19090714Y-14904524D01*
X19081190Y-14875952D01*
X19071667Y-14828333D01*
X19071667Y-14790238D01*
X19081190Y-14742619D01*
X19090714Y-14714048D01*
X19100238Y-14695000D01*
X19119286Y-14666428D01*
X19128810Y-14656905D01*
X19205000Y-14752143D02*
X19205000Y-14885476D01*
X19205000Y-14771190D02*
X19214524Y-14761667D01*
X19233571Y-14752143D01*
X19262143Y-14752143D01*
X19281190Y-14761667D01*
X19290714Y-14780714D01*
X19290714Y-14885476D01*
X19414524Y-14885476D02*
X19395476Y-14875952D01*
X19385952Y-14866428D01*
X19376429Y-14847381D01*
X19376429Y-14790238D01*
X19385952Y-14771190D01*
X19395476Y-14761667D01*
X19414524Y-14752143D01*
X19443095Y-14752143D01*
X19462143Y-14761667D01*
X19471667Y-14771190D01*
X19481190Y-14790238D01*
X19481190Y-14847381D01*
X19471667Y-14866428D01*
X19462143Y-14875952D01*
X19443095Y-14885476D01*
X19414524Y-14885476D01*
X19538333Y-14752143D02*
X19614524Y-14752143D01*
X19566905Y-14685476D02*
X19566905Y-14856905D01*
X19576429Y-14875952D01*
X19595476Y-14885476D01*
X19614524Y-14885476D01*
X19833571Y-14752143D02*
X19833571Y-14952143D01*
X19833571Y-14761667D02*
X19852619Y-14752143D01*
X19890714Y-14752143D01*
X19909762Y-14761667D01*
X19919286Y-14771190D01*
X19928810Y-14790238D01*
X19928810Y-14847381D01*
X19919286Y-14866428D01*
X19909762Y-14875952D01*
X19890714Y-14885476D01*
X19852619Y-14885476D01*
X19833571Y-14875952D01*
X20043095Y-14885476D02*
X20024048Y-14875952D01*
X20014524Y-14856905D01*
X20014524Y-14685476D01*
X20205000Y-14885476D02*
X20205000Y-14780714D01*
X20195476Y-14761667D01*
X20176429Y-14752143D01*
X20138333Y-14752143D01*
X20119286Y-14761667D01*
X20205000Y-14875952D02*
X20185952Y-14885476D01*
X20138333Y-14885476D01*
X20119286Y-14875952D01*
X20109762Y-14856905D01*
X20109762Y-14837857D01*
X20119286Y-14818809D01*
X20138333Y-14809286D01*
X20185952Y-14809286D01*
X20205000Y-14799762D01*
X20271667Y-14752143D02*
X20347857Y-14752143D01*
X20300238Y-14685476D02*
X20300238Y-14856905D01*
X20309762Y-14875952D01*
X20328810Y-14885476D01*
X20347857Y-14885476D01*
X20490714Y-14875952D02*
X20471667Y-14885476D01*
X20433571Y-14885476D01*
X20414524Y-14875952D01*
X20405000Y-14856905D01*
X20405000Y-14780714D01*
X20414524Y-14761667D01*
X20433571Y-14752143D01*
X20471667Y-14752143D01*
X20490714Y-14761667D01*
X20500238Y-14780714D01*
X20500238Y-14799762D01*
X20405000Y-14818809D01*
X20671667Y-14885476D02*
X20671667Y-14685476D01*
X20671667Y-14875952D02*
X20652619Y-14885476D01*
X20614524Y-14885476D01*
X20595476Y-14875952D01*
X20585952Y-14866428D01*
X20576429Y-14847381D01*
X20576429Y-14790238D01*
X20585952Y-14771190D01*
X20595476Y-14761667D01*
X20614524Y-14752143D01*
X20652619Y-14752143D01*
X20671667Y-14761667D01*
X20747857Y-14961667D02*
X20757381Y-14952143D01*
X20776429Y-14923571D01*
X20785952Y-14904524D01*
X20795476Y-14875952D01*
X20805000Y-14828333D01*
X20805000Y-14790238D01*
X20795476Y-14742619D01*
X20785952Y-14714048D01*
X20776429Y-14695000D01*
X20757381Y-14666428D01*
X20747857Y-14656905D01*
X13995000Y-15059000D02*
G75*
G03*
X13995000Y-15059000I-100000J0D01*
G01*
X14243095Y-14968524D02*
X14252619Y-14959000D01*
X14271667Y-14949476D01*
X14319286Y-14949476D01*
X14338333Y-14959000D01*
X14347857Y-14968524D01*
X14357381Y-14987571D01*
X14357381Y-15006619D01*
X14347857Y-15035190D01*
X14233571Y-15149476D01*
X14357381Y-15149476D01*
X14443095Y-15130428D02*
X14452619Y-15139952D01*
X14443095Y-15149476D01*
X14433571Y-15139952D01*
X14443095Y-15130428D01*
X14443095Y-15149476D01*
X14519286Y-14949476D02*
X14652619Y-14949476D01*
X14566905Y-15149476D01*
X14766905Y-14949476D02*
X14785952Y-14949476D01*
X14805000Y-14959000D01*
X14814524Y-14968524D01*
X14824048Y-14987571D01*
X14833571Y-15025667D01*
X14833571Y-15073286D01*
X14824048Y-15111381D01*
X14814524Y-15130428D01*
X14805000Y-15139952D01*
X14785952Y-15149476D01*
X14766905Y-15149476D01*
X14747857Y-15139952D01*
X14738333Y-15130428D01*
X14728809Y-15111381D01*
X14719286Y-15073286D01*
X14719286Y-15025667D01*
X14728809Y-14987571D01*
X14738333Y-14968524D01*
X14747857Y-14959000D01*
X14766905Y-14949476D01*
X14957381Y-14949476D02*
X14976428Y-14949476D01*
X14995476Y-14959000D01*
X15005000Y-14968524D01*
X15014524Y-14987571D01*
X15024048Y-15025667D01*
X15024048Y-15073286D01*
X15014524Y-15111381D01*
X15005000Y-15130428D01*
X14995476Y-15139952D01*
X14976428Y-15149476D01*
X14957381Y-15149476D01*
X14938333Y-15139952D01*
X14928809Y-15130428D01*
X14919286Y-15111381D01*
X14909762Y-15073286D01*
X14909762Y-15025667D01*
X14919286Y-14987571D01*
X14928809Y-14968524D01*
X14938333Y-14959000D01*
X14957381Y-14949476D01*
X15109762Y-15149476D02*
X15109762Y-15016143D01*
X15109762Y-15035190D02*
X15119286Y-15025667D01*
X15138333Y-15016143D01*
X15166905Y-15016143D01*
X15185952Y-15025667D01*
X15195476Y-15044714D01*
X15195476Y-15149476D01*
X15195476Y-15044714D02*
X15205000Y-15025667D01*
X15224048Y-15016143D01*
X15252619Y-15016143D01*
X15271667Y-15025667D01*
X15281190Y-15044714D01*
X15281190Y-15149476D01*
X15376428Y-15149476D02*
X15376428Y-15016143D01*
X15376428Y-15035190D02*
X15385952Y-15025667D01*
X15405000Y-15016143D01*
X15433571Y-15016143D01*
X15452619Y-15025667D01*
X15462143Y-15044714D01*
X15462143Y-15149476D01*
X15462143Y-15044714D02*
X15471667Y-15025667D01*
X15490714Y-15016143D01*
X15519286Y-15016143D01*
X15538333Y-15025667D01*
X15547857Y-15044714D01*
X15547857Y-15149476D01*
X15938333Y-14939952D02*
X15766905Y-15197095D01*
X16195476Y-14949476D02*
X16214524Y-14949476D01*
X16233571Y-14959000D01*
X16243095Y-14968524D01*
X16252619Y-14987571D01*
X16262143Y-15025667D01*
X16262143Y-15073286D01*
X16252619Y-15111381D01*
X16243095Y-15130428D01*
X16233571Y-15139952D01*
X16214524Y-15149476D01*
X16195476Y-15149476D01*
X16176428Y-15139952D01*
X16166905Y-15130428D01*
X16157381Y-15111381D01*
X16147857Y-15073286D01*
X16147857Y-15025667D01*
X16157381Y-14987571D01*
X16166905Y-14968524D01*
X16176428Y-14959000D01*
X16195476Y-14949476D01*
X16347857Y-15130428D02*
X16357381Y-15139952D01*
X16347857Y-15149476D01*
X16338333Y-15139952D01*
X16347857Y-15130428D01*
X16347857Y-15149476D01*
X16547857Y-15149476D02*
X16433571Y-15149476D01*
X16490714Y-15149476D02*
X16490714Y-14949476D01*
X16471667Y-14978048D01*
X16452619Y-14997095D01*
X16433571Y-15006619D01*
X16671667Y-14949476D02*
X16690714Y-14949476D01*
X16709762Y-14959000D01*
X16719286Y-14968524D01*
X16728809Y-14987571D01*
X16738333Y-15025667D01*
X16738333Y-15073286D01*
X16728809Y-15111381D01*
X16719286Y-15130428D01*
X16709762Y-15139952D01*
X16690714Y-15149476D01*
X16671667Y-15149476D01*
X16652619Y-15139952D01*
X16643095Y-15130428D01*
X16633571Y-15111381D01*
X16624048Y-15073286D01*
X16624048Y-15025667D01*
X16633571Y-14987571D01*
X16643095Y-14968524D01*
X16652619Y-14959000D01*
X16671667Y-14949476D01*
X16909762Y-14949476D02*
X16871667Y-14949476D01*
X16852619Y-14959000D01*
X16843095Y-14968524D01*
X16824048Y-14997095D01*
X16814524Y-15035190D01*
X16814524Y-15111381D01*
X16824048Y-15130428D01*
X16833571Y-15139952D01*
X16852619Y-15149476D01*
X16890714Y-15149476D01*
X16909762Y-15139952D01*
X16919286Y-15130428D01*
X16928810Y-15111381D01*
X16928810Y-15063762D01*
X16919286Y-15044714D01*
X16909762Y-15035190D01*
X16890714Y-15025667D01*
X16852619Y-15025667D01*
X16833571Y-15035190D01*
X16824048Y-15044714D01*
X16814524Y-15063762D01*
X16995476Y-14949476D02*
X17119286Y-14949476D01*
X17052619Y-15025667D01*
X17081190Y-15025667D01*
X17100238Y-15035190D01*
X17109762Y-15044714D01*
X17119286Y-15063762D01*
X17119286Y-15111381D01*
X17109762Y-15130428D01*
X17100238Y-15139952D01*
X17081190Y-15149476D01*
X17024048Y-15149476D01*
X17005000Y-15139952D01*
X16995476Y-15130428D01*
X17195476Y-14949476D02*
X17195476Y-14987571D01*
X17271667Y-14949476D02*
X17271667Y-14987571D01*
X17566905Y-15225667D02*
X17557381Y-15216143D01*
X17538333Y-15187571D01*
X17528810Y-15168524D01*
X17519286Y-15139952D01*
X17509762Y-15092333D01*
X17509762Y-15054238D01*
X17519286Y-15006619D01*
X17528810Y-14978048D01*
X17538333Y-14959000D01*
X17557381Y-14930428D01*
X17566905Y-14920905D01*
X17633571Y-14968524D02*
X17643095Y-14959000D01*
X17662143Y-14949476D01*
X17709762Y-14949476D01*
X17728810Y-14959000D01*
X17738333Y-14968524D01*
X17747857Y-14987571D01*
X17747857Y-15006619D01*
X17738333Y-15035190D01*
X17624048Y-15149476D01*
X17747857Y-15149476D01*
X17985952Y-15149476D02*
X17985952Y-14949476D01*
X18071667Y-15149476D02*
X18071667Y-15044714D01*
X18062143Y-15025667D01*
X18043095Y-15016143D01*
X18014524Y-15016143D01*
X17995476Y-15025667D01*
X17985952Y-15035190D01*
X18195476Y-15149476D02*
X18176429Y-15139952D01*
X18166905Y-15130428D01*
X18157381Y-15111381D01*
X18157381Y-15054238D01*
X18166905Y-15035190D01*
X18176429Y-15025667D01*
X18195476Y-15016143D01*
X18224048Y-15016143D01*
X18243095Y-15025667D01*
X18252619Y-15035190D01*
X18262143Y-15054238D01*
X18262143Y-15111381D01*
X18252619Y-15130428D01*
X18243095Y-15139952D01*
X18224048Y-15149476D01*
X18195476Y-15149476D01*
X18376429Y-15149476D02*
X18357381Y-15139952D01*
X18347857Y-15120905D01*
X18347857Y-14949476D01*
X18528810Y-15139952D02*
X18509762Y-15149476D01*
X18471667Y-15149476D01*
X18452619Y-15139952D01*
X18443095Y-15120905D01*
X18443095Y-15044714D01*
X18452619Y-15025667D01*
X18471667Y-15016143D01*
X18509762Y-15016143D01*
X18528810Y-15025667D01*
X18538333Y-15044714D01*
X18538333Y-15063762D01*
X18443095Y-15082809D01*
X18614524Y-15139952D02*
X18633571Y-15149476D01*
X18671667Y-15149476D01*
X18690714Y-15139952D01*
X18700238Y-15120905D01*
X18700238Y-15111381D01*
X18690714Y-15092333D01*
X18671667Y-15082809D01*
X18643095Y-15082809D01*
X18624048Y-15073286D01*
X18614524Y-15054238D01*
X18614524Y-15044714D01*
X18624048Y-15025667D01*
X18643095Y-15016143D01*
X18671667Y-15016143D01*
X18690714Y-15025667D01*
X18766905Y-15225667D02*
X18776429Y-15216143D01*
X18795476Y-15187571D01*
X18805000Y-15168524D01*
X18814524Y-15139952D01*
X18824048Y-15092333D01*
X18824048Y-15054238D01*
X18814524Y-15006619D01*
X18805000Y-14978048D01*
X18795476Y-14959000D01*
X18776429Y-14930428D01*
X18766905Y-14920905D01*
X19128810Y-15225667D02*
X19119286Y-15216143D01*
X19100238Y-15187571D01*
X19090714Y-15168524D01*
X19081190Y-15139952D01*
X19071667Y-15092333D01*
X19071667Y-15054238D01*
X19081190Y-15006619D01*
X19090714Y-14978048D01*
X19100238Y-14959000D01*
X19119286Y-14930428D01*
X19128810Y-14920905D01*
X19205000Y-15016143D02*
X19205000Y-15149476D01*
X19205000Y-15035190D02*
X19214524Y-15025667D01*
X19233571Y-15016143D01*
X19262143Y-15016143D01*
X19281190Y-15025667D01*
X19290714Y-15044714D01*
X19290714Y-15149476D01*
X19414524Y-15149476D02*
X19395476Y-15139952D01*
X19385952Y-15130428D01*
X19376429Y-15111381D01*
X19376429Y-15054238D01*
X19385952Y-15035190D01*
X19395476Y-15025667D01*
X19414524Y-15016143D01*
X19443095Y-15016143D01*
X19462143Y-15025667D01*
X19471667Y-15035190D01*
X19481190Y-15054238D01*
X19481190Y-15111381D01*
X19471667Y-15130428D01*
X19462143Y-15139952D01*
X19443095Y-15149476D01*
X19414524Y-15149476D01*
X19538333Y-15016143D02*
X19614524Y-15016143D01*
X19566905Y-14949476D02*
X19566905Y-15120905D01*
X19576429Y-15139952D01*
X19595476Y-15149476D01*
X19614524Y-15149476D01*
X19833571Y-15016143D02*
X19833571Y-15216143D01*
X19833571Y-15025667D02*
X19852619Y-15016143D01*
X19890714Y-15016143D01*
X19909762Y-15025667D01*
X19919286Y-15035190D01*
X19928810Y-15054238D01*
X19928810Y-15111381D01*
X19919286Y-15130428D01*
X19909762Y-15139952D01*
X19890714Y-15149476D01*
X19852619Y-15149476D01*
X19833571Y-15139952D01*
X20043095Y-15149476D02*
X20024048Y-15139952D01*
X20014524Y-15120905D01*
X20014524Y-14949476D01*
X20205000Y-15149476D02*
X20205000Y-15044714D01*
X20195476Y-15025667D01*
X20176429Y-15016143D01*
X20138333Y-15016143D01*
X20119286Y-15025667D01*
X20205000Y-15139952D02*
X20185952Y-15149476D01*
X20138333Y-15149476D01*
X20119286Y-15139952D01*
X20109762Y-15120905D01*
X20109762Y-15101857D01*
X20119286Y-15082809D01*
X20138333Y-15073286D01*
X20185952Y-15073286D01*
X20205000Y-15063762D01*
X20271667Y-15016143D02*
X20347857Y-15016143D01*
X20300238Y-14949476D02*
X20300238Y-15120905D01*
X20309762Y-15139952D01*
X20328810Y-15149476D01*
X20347857Y-15149476D01*
X20490714Y-15139952D02*
X20471667Y-15149476D01*
X20433571Y-15149476D01*
X20414524Y-15139952D01*
X20405000Y-15120905D01*
X20405000Y-15044714D01*
X20414524Y-15025667D01*
X20433571Y-15016143D01*
X20471667Y-15016143D01*
X20490714Y-15025667D01*
X20500238Y-15044714D01*
X20500238Y-15063762D01*
X20405000Y-15082809D01*
X20671667Y-15149476D02*
X20671667Y-14949476D01*
X20671667Y-15139952D02*
X20652619Y-15149476D01*
X20614524Y-15149476D01*
X20595476Y-15139952D01*
X20585952Y-15130428D01*
X20576429Y-15111381D01*
X20576429Y-15054238D01*
X20585952Y-15035190D01*
X20595476Y-15025667D01*
X20614524Y-15016143D01*
X20652619Y-15016143D01*
X20671667Y-15025667D01*
X20747857Y-15225667D02*
X20757381Y-15216143D01*
X20776429Y-15187571D01*
X20785952Y-15168524D01*
X20795476Y-15139952D01*
X20805000Y-15092333D01*
X20805000Y-15054238D01*
X20795476Y-15006619D01*
X20785952Y-14978048D01*
X20776429Y-14959000D01*
X20757381Y-14930428D01*
X20747857Y-14920905D01*
M02*
