M48
; DRILL file {KiCad (6.0.8)} date Tue 08 Nov 2022 21:59:54 GMT
; FORMAT={-:-/ absolute / metric / decimal}
; #@! TF.CreationDate,2022-11-08T21:59:54+00:00
; #@! TF.GenerationSoftware,Kicad,Pcbnew,(6.0.8)
; #@! TF.FileFunction,Plated,1,2,PTH
FMAT,2
METRIC
; #@! TA.AperFunction,Plated,PTH,ViaDrill
T1C0.400
; #@! TA.AperFunction,Plated,PTH,ComponentDrill
T2C0.750
; #@! TA.AperFunction,Plated,PTH,ComponentDrill
T3C0.800
%
G90
G05
T1
X141.05Y-109.985
X141.05Y-111.65
X143.05Y-111.6
X143.25Y-81.0
X144.6Y-76.55
X145.1Y-111.0
X145.497Y-59.83
X145.5Y-108.75
X146.315Y-131.685
X147.335Y-104.0
X148.15Y-58.7
X149.034Y-82.253
X149.1Y-71.8
X150.0Y-119.4
X150.2Y-62.5
X150.2Y-132.2
X150.8Y-78.3
X151.2Y-85.1
X153.75Y-89.25
X153.75Y-90.75
X153.75Y-92.25
X154.3Y-80.25
X154.5Y-73.5
X155.0Y-88.0
X155.0Y-93.5
X155.1Y-55.9
X155.2Y-56.9
X155.2Y-61.4
X155.8Y-54.8
X156.225Y-57.1
X156.5Y-88.0
X156.5Y-93.5
X157.0Y-74.5
X157.25Y-79.75
X157.3Y-66.3
X157.5Y-129.0
X158.0Y-88.0
X158.0Y-93.5
X158.0Y-137.75
X158.0Y-138.75
X158.3Y-51.3
X159.25Y-89.25
X159.25Y-90.75
X159.25Y-92.0
X159.8Y-70.2
X160.2Y-82.3
X160.25Y-72.5
X160.5Y-129.0
X160.6Y-67.0
X161.185Y-113.63
X161.8Y-65.5
X161.87Y-47.75
X162.0Y-81.5
X162.5Y-64.25
X162.5Y-71.5
X162.9Y-50.1
X163.8Y-126.8
X164.1Y-69.1
X164.3Y-61.8
X164.727Y-84.977
X164.748Y-86.976
X164.757Y-85.976
X164.762Y-87.986
X165.0Y-69.3
X165.0Y-76.75
X165.25Y-102.5
X165.4Y-52.5
X165.54Y-81.5
X165.75Y-74.5
X166.1Y-127.8
X166.2Y-69.1
X166.2Y-75.4
X166.538Y-80.917
X166.7Y-106.9
X166.75Y-55.5
X166.8Y-105.7
X166.9Y-64.3
X166.9Y-121.5
X166.975Y-53.9
X166.975Y-60.2
X166.975Y-66.5
X167.2Y-110.0
X167.262Y-81.738
X167.75Y-52.75
X168.0Y-121.6
X168.012Y-82.488
X168.175Y-97.4
X168.4Y-49.8
X168.6Y-129.744
X168.674Y-53.599
X168.762Y-83.238
X170.523Y-97.7
X170.523Y-102.572
X170.523Y-106.9
X170.6Y-105.8
X170.7Y-110.0
X170.9Y-128.6
X170.9Y-131.1
X171.0Y-127.5
X171.0Y-129.8
X171.1Y-79.3
X171.994Y-78.853
X172.419Y-52.785
X172.6Y-122.6
X173.5Y-52.75
X173.75Y-124.75
X175.144Y-122.556
X176.0Y-124.4
X178.185Y-101.072
X178.25Y-99.75
X180.935Y-101.072
X181.0Y-99.75
X181.6Y-69.3
X182.5Y-137.75
X182.5Y-138.75
X185.5Y-94.0
X185.612Y-110.912
X185.7Y-108.6
X186.182Y-87.122
X187.7Y-66.3
X187.719Y-90.719
X187.743Y-94.045
X187.75Y-97.5
X188.75Y-89.913
X189.0Y-130.05
X189.1Y-99.55
X189.4Y-132.6
X189.4Y-134.2
X189.8Y-113.4
X190.1Y-95.6
X190.75Y-91.25
X191.304Y-90.418
X192.0Y-99.6
X192.0Y-100.7
X192.1Y-104.8
X193.1Y-72.2
X193.149Y-62.2
X193.622Y-131.508
X194.081Y-59.616
X194.5Y-119.0
X195.2Y-74.5
X195.3Y-85.6
X196.07Y-107.429
X197.25Y-83.0
X197.832Y-94.14
X198.55Y-82.85
X198.6Y-93.5
X198.6Y-107.95
X198.7Y-78.15
T2
X167.1Y-50.262
X172.9Y-50.262
T3
G00X165.67Y-46.263
M15
G01X165.67Y-46.862
M16
G05
G00X165.67Y-50.362
M15
G01X165.67Y-51.163
M16
G05
G00X174.33Y-46.263
M15
G01X174.33Y-46.862
M16
G05
G00X174.33Y-50.363
M15
G01X174.33Y-51.162
M16
G05
T0
M30
