%TF.GenerationSoftware,KiCad,Pcbnew,(6.0.5)*%
%TF.CreationDate,2022-07-03T19:07:04+01:00*%
%TF.ProjectId,octoscale,6f63746f-7363-4616-9c65-2e6b69636164,rev?*%
%TF.SameCoordinates,Original*%
%TF.FileFunction,Soldermask,Bot*%
%TF.FilePolarity,Negative*%
%FSLAX46Y46*%
G04 Gerber Fmt 4.6, Leading zero omitted, Abs format (unit mm)*
G04 Created by KiCad (PCBNEW (6.0.5)) date 2022-07-03 19:07:04*
%MOMM*%
%LPD*%
G01*
G04 APERTURE LIST*
G04 Aperture macros list*
%AMRoundRect*
0 Rectangle with rounded corners*
0 $1 Rounding radius*
0 $2 $3 $4 $5 $6 $7 $8 $9 X,Y pos of 4 corners*
0 Add a 4 corners polygon primitive as box body*
4,1,4,$2,$3,$4,$5,$6,$7,$8,$9,$2,$3,0*
0 Add four circle primitives for the rounded corners*
1,1,$1+$1,$2,$3*
1,1,$1+$1,$4,$5*
1,1,$1+$1,$6,$7*
1,1,$1+$1,$8,$9*
0 Add four rect primitives between the rounded corners*
20,1,$1+$1,$2,$3,$4,$5,0*
20,1,$1+$1,$4,$5,$6,$7,0*
20,1,$1+$1,$6,$7,$8,$9,0*
20,1,$1+$1,$8,$9,$2,$3,0*%
%AMRotRect*
0 Rectangle, with rotation*
0 The origin of the aperture is its center*
0 $1 length*
0 $2 width*
0 $3 Rotation angle, in degrees counterclockwise*
0 Add horizontal line*
21,1,$1,$2,0,0,$3*%
%AMFreePoly0*
4,1,6,1.000000,0.000000,0.500000,-0.750000,-0.500000,-0.750000,-0.500000,0.750000,0.500000,0.750000,1.000000,0.000000,1.000000,0.000000,$1*%
%AMFreePoly1*
4,1,6,0.500000,-0.750000,-0.650000,-0.750000,-0.150000,0.000000,-0.650000,0.750000,0.500000,0.750000,0.500000,-0.750000,0.500000,-0.750000,$1*%
%AMFreePoly2*
4,1,22,0.500000,-0.750000,0.000000,-0.750000,0.000000,-0.745033,-0.079941,-0.743568,-0.215256,-0.701293,-0.333266,-0.622738,-0.424486,-0.514219,-0.481581,-0.384460,-0.499164,-0.250000,-0.500000,-0.250000,-0.500000,0.250000,-0.499164,0.250000,-0.499963,0.256109,-0.478152,0.396186,-0.417904,0.524511,-0.324060,0.630769,-0.204165,0.706417,-0.067858,0.745374,0.000000,0.744959,0.000000,0.750000,
0.500000,0.750000,0.500000,-0.750000,0.500000,-0.750000,$1*%
%AMFreePoly3*
4,1,20,0.000000,0.744959,0.073905,0.744508,0.209726,0.703889,0.328688,0.626782,0.421226,0.519385,0.479903,0.390333,0.500000,0.250000,0.500000,-0.250000,0.499851,-0.262216,0.476331,-0.402017,0.414519,-0.529596,0.319384,-0.634700,0.198574,-0.708877,0.061801,-0.746166,0.000000,-0.745033,0.000000,-0.750000,-0.500000,-0.750000,-0.500000,0.750000,0.000000,0.750000,0.000000,0.744959,
0.000000,0.744959,$1*%
G04 Aperture macros list end*
%ADD10C,2.700000*%
%ADD11R,0.700000X0.900000*%
%ADD12C,1.500000*%
%ADD13RoundRect,0.250000X-0.350000X-0.450000X0.350000X-0.450000X0.350000X0.450000X-0.350000X0.450000X0*%
%ADD14RoundRect,0.250000X-0.337500X-0.475000X0.337500X-0.475000X0.337500X0.475000X-0.337500X0.475000X0*%
%ADD15RoundRect,0.250000X0.350000X0.450000X-0.350000X0.450000X-0.350000X-0.450000X0.350000X-0.450000X0*%
%ADD16R,0.600000X1.000000*%
%ADD17RoundRect,0.250000X0.475000X-0.337500X0.475000X0.337500X-0.475000X0.337500X-0.475000X-0.337500X0*%
%ADD18RoundRect,0.250000X-0.325000X-0.450000X0.325000X-0.450000X0.325000X0.450000X-0.325000X0.450000X0*%
%ADD19RoundRect,0.250000X0.450000X-0.350000X0.450000X0.350000X-0.450000X0.350000X-0.450000X-0.350000X0*%
%ADD20R,0.650000X1.220000*%
%ADD21RoundRect,0.250000X0.337500X0.475000X-0.337500X0.475000X-0.337500X-0.475000X0.337500X-0.475000X0*%
%ADD22R,0.700000X0.600000*%
%ADD23R,1.000000X0.900000*%
%ADD24RoundRect,0.250000X-0.450000X0.350000X-0.450000X-0.350000X0.450000X-0.350000X0.450000X0.350000X0*%
%ADD25RotRect,0.900000X0.700000X240.000000*%
%ADD26RoundRect,0.250000X-0.580112X0.054784X-0.242612X-0.529784X0.580112X-0.054784X0.242612X0.529784X0*%
%ADD27RotRect,0.900000X0.700000X300.000000*%
%ADD28RoundRect,0.200000X0.200000X0.450000X-0.200000X0.450000X-0.200000X-0.450000X0.200000X-0.450000X0*%
%ADD29RoundRect,0.250001X0.799999X1.249999X-0.799999X1.249999X-0.799999X-1.249999X0.799999X-1.249999X0*%
%ADD30R,0.500000X1.600000*%
%ADD31R,1.800000X1.600000*%
%ADD32RotRect,0.900000X0.700000X120.000000*%
%ADD33FreePoly0,270.000000*%
%ADD34FreePoly1,270.000000*%
%ADD35FreePoly2,0.000000*%
%ADD36FreePoly3,0.000000*%
%ADD37R,1.250000X0.700000*%
%ADD38R,0.600000X0.700000*%
%ADD39RotRect,0.900000X0.700000X60.000000*%
%ADD40R,0.400000X8.000000*%
%ADD41RoundRect,0.150000X0.150000X0.625000X-0.150000X0.625000X-0.150000X-0.625000X0.150000X-0.625000X0*%
%ADD42RoundRect,0.250000X0.350000X0.650000X-0.350000X0.650000X-0.350000X-0.650000X0.350000X-0.650000X0*%
%ADD43RoundRect,0.150000X0.625000X-0.150000X0.625000X0.150000X-0.625000X0.150000X-0.625000X-0.150000X0*%
%ADD44RoundRect,0.250000X0.650000X-0.350000X0.650000X0.350000X-0.650000X0.350000X-0.650000X-0.350000X0*%
%ADD45RoundRect,0.250000X0.242612X-0.529784X0.580112X0.054784X-0.242612X0.529784X-0.580112X-0.054784X0*%
%ADD46RoundRect,0.250000X-0.242612X0.529784X-0.580112X-0.054784X0.242612X-0.529784X0.580112X0.054784X0*%
%ADD47RoundRect,0.250000X-0.475000X0.337500X-0.475000X-0.337500X0.475000X-0.337500X0.475000X0.337500X0*%
%ADD48R,0.900000X1.500000*%
%ADD49R,1.500000X0.900000*%
%ADD50R,0.900000X0.900000*%
%ADD51R,0.450000X0.600000*%
%ADD52RoundRect,0.150000X-0.150000X-0.625000X0.150000X-0.625000X0.150000X0.625000X-0.150000X0.625000X0*%
%ADD53RoundRect,0.250000X-0.350000X-0.650000X0.350000X-0.650000X0.350000X0.650000X-0.350000X0.650000X0*%
%ADD54R,4.200000X2.000000*%
%ADD55RoundRect,0.250000X0.580112X-0.054784X0.242612X0.529784X-0.580112X0.054784X-0.242612X-0.529784X0*%
%ADD56RoundRect,0.250000X-0.350000X0.275000X-0.350000X-0.275000X0.350000X-0.275000X0.350000X0.275000X0*%
%ADD57O,1.750000X0.560000*%
%ADD58R,0.900000X0.700000*%
%ADD59R,0.800000X1.000000*%
%ADD60C,0.900000*%
%ADD61R,1.500000X0.700000*%
%ADD62RoundRect,0.250000X0.325000X0.450000X-0.325000X0.450000X-0.325000X-0.450000X0.325000X-0.450000X0*%
%ADD63C,0.750000*%
%ADD64R,0.600000X1.300000*%
%ADD65R,0.300000X1.300000*%
%ADD66O,1.200000X2.000000*%
%ADD67O,1.200000X1.800000*%
%ADD68R,1.000000X1.000000*%
G04 APERTURE END LIST*
D10*
%TO.C,H2*%
X146000000Y-114550000D03*
%TD*%
%TO.C,H4*%
X179700000Y-109100000D03*
%TD*%
D11*
%TO.C,D12*%
X141055000Y-108935000D03*
X142155000Y-108935000D03*
X142155000Y-110775000D03*
X141055000Y-110775000D03*
%TD*%
D12*
%TO.C,TP3*%
X165750000Y-62750000D03*
%TD*%
D13*
%TO.C,R16*%
X150100000Y-68500000D03*
X152100000Y-68500000D03*
%TD*%
D14*
%TO.C,C6*%
X153897503Y-114129999D03*
X155972503Y-114129999D03*
%TD*%
D15*
%TO.C,R11*%
X159172499Y-78309263D03*
X157172499Y-78309263D03*
%TD*%
D14*
%TO.C,C16*%
X162425000Y-131000000D03*
X164500000Y-131000000D03*
%TD*%
%TO.C,C11*%
X186712500Y-95262500D03*
X188787500Y-95262500D03*
%TD*%
D16*
%TO.C,U1*%
X153549997Y-72450004D03*
X154499997Y-72450004D03*
X155449997Y-72450004D03*
X155449997Y-75050004D03*
X153549997Y-75050004D03*
%TD*%
D14*
%TO.C,C7*%
X153897497Y-117250000D03*
X155972497Y-117250000D03*
%TD*%
D17*
%TO.C,C24*%
X144500000Y-80750000D03*
X144500000Y-78675000D03*
%TD*%
D18*
%TO.C,D13*%
X161397500Y-78309262D03*
X163447500Y-78309262D03*
%TD*%
D19*
%TO.C,R5*%
X151249999Y-75249998D03*
X151249999Y-73249998D03*
%TD*%
D14*
%TO.C,C2*%
X163462498Y-65500001D03*
X165537498Y-65500001D03*
%TD*%
D12*
%TO.C,TP4*%
X162750000Y-62750000D03*
%TD*%
D20*
%TO.C,Q3*%
X188950000Y-87810000D03*
X187050000Y-87810000D03*
X188000000Y-85190000D03*
%TD*%
D21*
%TO.C,C17*%
X188237500Y-132500000D03*
X186162500Y-132500000D03*
%TD*%
%TO.C,C28*%
X169637500Y-130700000D03*
X167562500Y-130700000D03*
%TD*%
D22*
%TO.C,D4*%
X161249997Y-72950003D03*
X161249997Y-71550003D03*
%TD*%
D23*
%TO.C,SW2*%
X190875000Y-100675000D03*
X190875000Y-104775000D03*
X189275000Y-104775000D03*
X189275000Y-100675000D03*
%TD*%
D21*
%TO.C,C15*%
X160325000Y-131000000D03*
X158250000Y-131000000D03*
%TD*%
D15*
%TO.C,R2*%
X164500000Y-54000000D03*
X162500000Y-54000000D03*
%TD*%
D14*
%TO.C,C8*%
X162647498Y-127749997D03*
X164722498Y-127749997D03*
%TD*%
D24*
%TO.C,R6*%
X159435003Y-110000003D03*
X159435003Y-112000003D03*
%TD*%
%TO.C,R7*%
X157185000Y-110000002D03*
X157185000Y-112000002D03*
%TD*%
D25*
%TO.C,D3*%
X193056314Y-132393505D03*
X192103686Y-131843505D03*
X193023686Y-130250019D03*
X193976314Y-130800019D03*
%TD*%
D26*
%TO.C,C23*%
X148481250Y-129101499D03*
X149518750Y-130898501D03*
%TD*%
D14*
%TO.C,C1*%
X161212500Y-75750002D03*
X163287500Y-75750002D03*
%TD*%
D23*
%TO.C,SW1*%
X194900000Y-104750000D03*
X194900000Y-100650000D03*
X193300000Y-100650000D03*
X193300000Y-104750000D03*
%TD*%
D27*
%TO.C,D8*%
X194611314Y-60521743D03*
X193658686Y-61071743D03*
X192738686Y-59478257D03*
X193691314Y-58928257D03*
%TD*%
D15*
%TO.C,R3*%
X159249998Y-75749999D03*
X157249998Y-75749999D03*
%TD*%
D28*
%TO.C,J3*%
X157325000Y-55950000D03*
X156075000Y-55950000D03*
D29*
X159875000Y-58700000D03*
X153525000Y-58700000D03*
%TD*%
D30*
%TO.C,U2*%
X163090000Y-67800000D03*
D31*
X165000000Y-67800000D03*
D30*
X166910000Y-67800000D03*
X166910000Y-73200000D03*
D31*
X165000000Y-73200000D03*
D30*
X163090000Y-73200000D03*
%TD*%
D12*
%TO.C,TP11*%
X151750000Y-105000000D03*
%TD*%
D15*
%TO.C,R1*%
X164500000Y-56000000D03*
X162500000Y-56000000D03*
%TD*%
D14*
%TO.C,C19*%
X160962500Y-51250000D03*
X163037500Y-51250000D03*
%TD*%
D12*
%TO.C,TP12*%
X146000000Y-70000000D03*
%TD*%
D15*
%TO.C,R12*%
X188808013Y-92979007D03*
X186808013Y-92979007D03*
%TD*%
%TO.C,R4*%
X148999999Y-75500000D03*
X146999999Y-75500000D03*
%TD*%
D12*
%TO.C,TP8*%
X167000000Y-126200000D03*
%TD*%
%TO.C,TP13*%
X156900000Y-51800000D03*
%TD*%
D21*
%TO.C,C12*%
X148787500Y-80500000D03*
X146712500Y-80500000D03*
%TD*%
D32*
%TO.C,D1*%
X145748686Y-130800019D03*
X146701314Y-130250019D03*
X147621314Y-131843505D03*
X146668686Y-132393505D03*
%TD*%
D33*
%TO.C,JP1*%
X167000000Y-122525000D03*
D34*
X167000000Y-123975000D03*
%TD*%
D17*
%TO.C,C26*%
X196300000Y-77537500D03*
X196300000Y-75462500D03*
%TD*%
D35*
%TO.C,JP2*%
X166550000Y-58500000D03*
D36*
X167850000Y-58500000D03*
%TD*%
D18*
%TO.C,D14*%
X158724996Y-68999998D03*
X160774996Y-68999998D03*
%TD*%
D37*
%TO.C,Q1*%
X159249998Y-71300004D03*
X159249998Y-73200004D03*
X157249998Y-72250004D03*
%TD*%
D38*
%TO.C,D2*%
X192800000Y-90250000D03*
X194200000Y-90250000D03*
%TD*%
D12*
%TO.C,TP7*%
X151750000Y-108000000D03*
%TD*%
D39*
%TO.C,D10*%
X146033686Y-58928257D03*
X146986314Y-59478257D03*
X146066314Y-61071743D03*
X145113686Y-60521743D03*
%TD*%
D40*
%TO.C,DS1*%
X160035000Y-136667500D03*
X160735000Y-136667500D03*
X161435000Y-136667500D03*
X162135000Y-136667500D03*
X162835000Y-136667500D03*
X163535000Y-136667500D03*
X164235000Y-136667500D03*
X164935000Y-136667500D03*
X165635000Y-136667500D03*
X166335000Y-136667500D03*
X167035000Y-136667500D03*
X167735000Y-136667500D03*
X168435000Y-136667500D03*
X169135000Y-136667500D03*
X169835000Y-136667500D03*
X170535000Y-136667500D03*
X171235000Y-136667500D03*
X171935000Y-136667500D03*
X172635000Y-136667500D03*
X173335000Y-136667500D03*
X174035000Y-136667500D03*
X174735000Y-136667500D03*
X175435000Y-136667500D03*
X176135000Y-136667500D03*
X176835000Y-136667500D03*
X177535000Y-136667500D03*
X178235000Y-136667500D03*
X178935000Y-136667500D03*
X179635000Y-136667500D03*
X180335000Y-136667500D03*
%TD*%
D12*
%TO.C,TP6*%
X159200000Y-63200000D03*
%TD*%
D19*
%TO.C,R19*%
X187300000Y-113900000D03*
X187300000Y-111900000D03*
%TD*%
D41*
%TO.C,J5*%
X191900000Y-72075000D03*
X190900000Y-72075000D03*
X189900000Y-72075000D03*
X188900000Y-72075000D03*
D42*
X193200000Y-69550000D03*
X187600000Y-69550000D03*
%TD*%
D14*
%TO.C,C13*%
X150962500Y-80500000D03*
X153037500Y-80500000D03*
%TD*%
D11*
%TO.C,D7*%
X198670000Y-80930000D03*
X197570000Y-80930000D03*
X197570000Y-79090000D03*
X198670000Y-79090000D03*
%TD*%
D24*
%TO.C,R17*%
X186400000Y-127200000D03*
X186400000Y-129200000D03*
%TD*%
D43*
%TO.C,J6*%
X187575000Y-65500000D03*
X187575000Y-64500000D03*
X187575000Y-63500000D03*
X187575000Y-62500000D03*
D44*
X190100000Y-66800000D03*
X190100000Y-61200000D03*
%TD*%
D13*
%TO.C,R9*%
X153934997Y-119499999D03*
X155934997Y-119499999D03*
%TD*%
D45*
%TO.C,C25*%
X148481250Y-60648501D03*
X149518750Y-58851499D03*
%TD*%
D17*
%TO.C,C3*%
X156500000Y-69537500D03*
X156500000Y-67462500D03*
%TD*%
D13*
%TO.C,R8*%
X153934999Y-121750000D03*
X155934999Y-121750000D03*
%TD*%
D46*
%TO.C,C20*%
X191018750Y-128851499D03*
X189981250Y-130648501D03*
%TD*%
D47*
%TO.C,C9*%
X160185001Y-125712500D03*
X160185001Y-127787500D03*
%TD*%
D48*
%TO.C,U5*%
X148740000Y-83500000D03*
X150010000Y-83500000D03*
X151280000Y-83500000D03*
X152550000Y-83500000D03*
X153820000Y-83500000D03*
X155090000Y-83500000D03*
X156360000Y-83500000D03*
X157630000Y-83500000D03*
X158900000Y-83500000D03*
X160170000Y-83500000D03*
X161440000Y-83500000D03*
X162710000Y-83500000D03*
X163980000Y-83500000D03*
X165250000Y-83500000D03*
D49*
X166500000Y-85265000D03*
X166500000Y-86535000D03*
X166500000Y-87805000D03*
X166500000Y-89075000D03*
X166500000Y-90345000D03*
X166500000Y-91615000D03*
X166500000Y-92885000D03*
X166500000Y-94155000D03*
X166500000Y-95425000D03*
X166500000Y-96695000D03*
X166500000Y-97965000D03*
X166500000Y-99235000D03*
D48*
X165250000Y-101000000D03*
X163980000Y-101000000D03*
X162710000Y-101000000D03*
X161440000Y-101000000D03*
X160170000Y-101000000D03*
X158900000Y-101000000D03*
X157630000Y-101000000D03*
X156360000Y-101000000D03*
X155090000Y-101000000D03*
X153820000Y-101000000D03*
X152550000Y-101000000D03*
X151280000Y-101000000D03*
X150010000Y-101000000D03*
X148740000Y-101000000D03*
D50*
X156460000Y-92150000D03*
X155060000Y-89350000D03*
X157860000Y-92150000D03*
X157860000Y-90750000D03*
X156460000Y-90750000D03*
X155060000Y-92150000D03*
X157860000Y-89350000D03*
X155060000Y-90750000D03*
X156460000Y-89350000D03*
%TD*%
D51*
%TO.C,D16*%
X190500000Y-97050000D03*
X190500000Y-99150000D03*
%TD*%
D21*
%TO.C,C30*%
X152137500Y-66300000D03*
X150062500Y-66300000D03*
%TD*%
D11*
%TO.C,D6*%
X198585000Y-110775000D03*
X197485000Y-110775000D03*
X197485000Y-108935000D03*
X198585000Y-108935000D03*
%TD*%
D17*
%TO.C,C27*%
X195300000Y-110787500D03*
X195300000Y-108712500D03*
%TD*%
D52*
%TO.C,J7*%
X176000000Y-118175000D03*
X177000000Y-118175000D03*
X178000000Y-118175000D03*
X179000000Y-118175000D03*
D53*
X174700000Y-120700000D03*
X180300000Y-120700000D03*
%TD*%
D14*
%TO.C,C29*%
X167562500Y-128600000D03*
X169637500Y-128600000D03*
%TD*%
D54*
%TO.C,LS1*%
X190300000Y-74750000D03*
X190300000Y-82750000D03*
%TD*%
D55*
%TO.C,C21*%
X194818750Y-64798501D03*
X193781250Y-63001499D03*
%TD*%
D37*
%TO.C,Q2*%
X155685000Y-124179995D03*
X155685000Y-126079995D03*
X153685000Y-125129995D03*
%TD*%
D47*
%TO.C,C22*%
X144000000Y-108712500D03*
X144000000Y-110787500D03*
%TD*%
D56*
%TO.C,L1*%
X165935004Y-109849999D03*
X165935004Y-112149999D03*
%TD*%
D57*
%TO.C,U4*%
X158564999Y-123450000D03*
X158564999Y-122180000D03*
X158564999Y-120910000D03*
X158564999Y-119630000D03*
X158564999Y-118370000D03*
X158564999Y-117100000D03*
X158564999Y-115830000D03*
X158564999Y-114560000D03*
X164304999Y-114560000D03*
X164304999Y-115830000D03*
X164304999Y-117100000D03*
X164304999Y-118370000D03*
X164304999Y-119630000D03*
X164304999Y-120910000D03*
X164304999Y-122180000D03*
X164304999Y-123450000D03*
%TD*%
D24*
%TO.C,R15*%
X164500000Y-58500000D03*
X164500000Y-60500000D03*
%TD*%
D13*
%TO.C,R13*%
X158750000Y-65500001D03*
X160750000Y-65500001D03*
%TD*%
D12*
%TO.C,TP9*%
X185000000Y-89000000D03*
%TD*%
%TO.C,TP10*%
X152100000Y-61800000D03*
%TD*%
D58*
%TO.C,D9*%
X162920000Y-47700000D03*
X162920000Y-48800000D03*
X161080000Y-48800000D03*
X161080000Y-47700000D03*
%TD*%
D13*
%TO.C,R10*%
X162685003Y-125500003D03*
X164685003Y-125500003D03*
%TD*%
D12*
%TO.C,TP5*%
X192750000Y-95000000D03*
%TD*%
D13*
%TO.C,R21*%
X192750000Y-97750000D03*
X194750000Y-97750000D03*
%TD*%
D47*
%TO.C,C10*%
X157685000Y-125712499D03*
X157685000Y-127787499D03*
%TD*%
D21*
%TO.C,C14*%
X148787500Y-78250000D03*
X146712500Y-78250000D03*
%TD*%
%TO.C,C18*%
X188237500Y-134750000D03*
X186162500Y-134750000D03*
%TD*%
D47*
%TO.C,C4*%
X163935000Y-109962495D03*
X163935000Y-112037495D03*
%TD*%
D43*
%TO.C,J4*%
X189925000Y-112250000D03*
X189925000Y-111250000D03*
X189925000Y-110250000D03*
X189925000Y-109250000D03*
D44*
X192450000Y-113550000D03*
X192450000Y-107950000D03*
%TD*%
D47*
%TO.C,C5*%
X161685002Y-109962504D03*
X161685002Y-112037504D03*
%TD*%
D59*
%TO.C,SW3*%
X197245000Y-84600000D03*
X199455000Y-91900000D03*
X197245000Y-91900000D03*
D60*
X198355000Y-89750000D03*
X198355000Y-86750000D03*
D59*
X199455000Y-84600000D03*
D61*
X196595000Y-86000000D03*
X196595000Y-89000000D03*
X196595000Y-90500000D03*
%TD*%
D15*
%TO.C,R18*%
X189700000Y-116100000D03*
X187700000Y-116100000D03*
%TD*%
%TO.C,R20*%
X152100000Y-64000000D03*
X150100000Y-64000000D03*
%TD*%
D41*
%TO.C,J2*%
X160000000Y-107574999D03*
X159000000Y-107574999D03*
X158000000Y-107574999D03*
X157000000Y-107574999D03*
D42*
X155700000Y-105049999D03*
X161300000Y-105049999D03*
%TD*%
D15*
%TO.C,R14*%
X193000000Y-87500000D03*
X191000000Y-87500000D03*
%TD*%
D62*
%TO.C,D5*%
X149024999Y-72999998D03*
X146974999Y-72999998D03*
%TD*%
D63*
%TO.C,J1*%
X172900000Y-50262500D03*
X167100000Y-50262500D03*
D64*
X166800000Y-51522500D03*
X167600000Y-51522500D03*
D65*
X168750000Y-51522500D03*
X169750000Y-51522500D03*
X170250000Y-51522500D03*
X171250000Y-51522500D03*
X172550000Y-51522500D03*
X173350000Y-51522500D03*
D64*
X173200000Y-51522500D03*
X172400000Y-51522500D03*
D65*
X171750000Y-51522500D03*
X170750000Y-51522500D03*
X169250000Y-51522500D03*
X168250000Y-51522500D03*
X167750000Y-51522500D03*
X166950000Y-51522500D03*
D66*
X165670000Y-50762500D03*
X174330000Y-50762500D03*
D67*
X165670000Y-46562500D03*
X174330000Y-46562500D03*
%TD*%
D11*
%TO.C,D11*%
X141055000Y-79090000D03*
X142155000Y-79090000D03*
X142155000Y-80930000D03*
X141055000Y-80930000D03*
%TD*%
D68*
%TO.C,D15*%
X193250000Y-85250000D03*
X190750000Y-85250000D03*
%TD*%
M02*
