%TF.GenerationSoftware,KiCad,Pcbnew,(6.0.8)*%
%TF.CreationDate,2022-11-08T22:00:13+00:00*%
%TF.ProjectId,octoscale,6f63746f-7363-4616-9c65-2e6b69636164,rev?*%
%TF.SameCoordinates,Original*%
%TF.FileFunction,Drillmap*%
%TF.FilePolarity,Positive*%
%FSLAX45Y45*%
G04 Gerber Fmt 4.5, Leading zero omitted, Abs format (unit mm)*
G04 Created by KiCad (PCBNEW (6.0.8)) date 2022-11-08 22:00:13*
%MOMM*%
%LPD*%
G01*
G04 APERTURE LIST*
%ADD10C,0.100000*%
%ADD11C,0.200000*%
%ADD12C,0.040000*%
%ADD13C,0.075000*%
%ADD14C,0.079999*%
G04 APERTURE END LIST*
D10*
X14000000Y-7500000D02*
X14000000Y-11500000D01*
X20000000Y-7500000D02*
X20000000Y-11500000D01*
X15600000Y-14150000D02*
X18400000Y-14150000D01*
X18400000Y-14149999D02*
G75*
G03*
X20000000Y-11500000I-1394530J2649999D01*
G01*
X20000000Y-7500000D02*
G75*
G03*
X14000000Y-7500000I-3000000J-340D01*
G01*
X13999998Y-11500000D02*
G75*
G03*
X15600000Y-14150000I3002562J4850D01*
G01*
D11*
D12*
X14085000Y-10978450D02*
X14125000Y-11018450D01*
X14125000Y-10978450D02*
X14085000Y-11018450D01*
X14085000Y-11145000D02*
X14125000Y-11185000D01*
X14125000Y-11145000D02*
X14085000Y-11185000D01*
X14285000Y-11140000D02*
X14325000Y-11180000D01*
X14325000Y-11140000D02*
X14285000Y-11180000D01*
X14305000Y-8080000D02*
X14345000Y-8120000D01*
X14345000Y-8080000D02*
X14305000Y-8120000D01*
X14440000Y-7635000D02*
X14480000Y-7675000D01*
X14480000Y-7635000D02*
X14440000Y-7675000D01*
X14490000Y-11080000D02*
X14530000Y-11120000D01*
X14530000Y-11080000D02*
X14490000Y-11120000D01*
X14529667Y-5963007D02*
X14569667Y-6003007D01*
X14569667Y-5963007D02*
X14529667Y-6003007D01*
X14530000Y-10855000D02*
X14570000Y-10895000D01*
X14570000Y-10855000D02*
X14530000Y-10895000D01*
X14611526Y-13148476D02*
X14651526Y-13188476D01*
X14651526Y-13148476D02*
X14611526Y-13188476D01*
X14713550Y-10380000D02*
X14753550Y-10420000D01*
X14753550Y-10380000D02*
X14713550Y-10420000D01*
X14795000Y-5850000D02*
X14835000Y-5890000D01*
X14835000Y-5850000D02*
X14795000Y-5890000D01*
X14883450Y-8205254D02*
X14923450Y-8245254D01*
X14923450Y-8205254D02*
X14883450Y-8245254D01*
X14890000Y-7160000D02*
X14930000Y-7200000D01*
X14930000Y-7160000D02*
X14890000Y-7200000D01*
X14980000Y-11920000D02*
X15020000Y-11960000D01*
X15020000Y-11920000D02*
X14980000Y-11960000D01*
X15000000Y-6230000D02*
X15040000Y-6270000D01*
X15040000Y-6230000D02*
X15000000Y-6270000D01*
X15000000Y-13200000D02*
X15040000Y-13240000D01*
X15040000Y-13200000D02*
X15000000Y-13240000D01*
X15060000Y-7810000D02*
X15100000Y-7850000D01*
X15100000Y-7810000D02*
X15060000Y-7850000D01*
X15100000Y-8490000D02*
X15140000Y-8530000D01*
X15140000Y-8490000D02*
X15100000Y-8530000D01*
X15355000Y-8905000D02*
X15395000Y-8945000D01*
X15395000Y-8905000D02*
X15355000Y-8945000D01*
X15355000Y-9055000D02*
X15395000Y-9095000D01*
X15395000Y-9055000D02*
X15355000Y-9095000D01*
X15355000Y-9205000D02*
X15395000Y-9245000D01*
X15395000Y-9205000D02*
X15355000Y-9245000D01*
X15410000Y-8005000D02*
X15450000Y-8045000D01*
X15450000Y-8005000D02*
X15410000Y-8045000D01*
X15430000Y-7330000D02*
X15470000Y-7370000D01*
X15470000Y-7330000D02*
X15430000Y-7370000D01*
X15480000Y-8780000D02*
X15520000Y-8820000D01*
X15520000Y-8780000D02*
X15480000Y-8820000D01*
X15480000Y-9330000D02*
X15520000Y-9370000D01*
X15520000Y-9330000D02*
X15480000Y-9370000D01*
X15490000Y-5570000D02*
X15530000Y-5610000D01*
X15530000Y-5570000D02*
X15490000Y-5610000D01*
X15500000Y-5670000D02*
X15540000Y-5710000D01*
X15540000Y-5670000D02*
X15500000Y-5710000D01*
X15500000Y-6120000D02*
X15540000Y-6160000D01*
X15540000Y-6120000D02*
X15500000Y-6160000D01*
X15560000Y-5460000D02*
X15600000Y-5500000D01*
X15600000Y-5460000D02*
X15560000Y-5500000D01*
X15602550Y-5690000D02*
X15642550Y-5730000D01*
X15642550Y-5690000D02*
X15602550Y-5730000D01*
X15630000Y-8780000D02*
X15670000Y-8820000D01*
X15670000Y-8780000D02*
X15630000Y-8820000D01*
X15630000Y-9330000D02*
X15670000Y-9370000D01*
X15670000Y-9330000D02*
X15630000Y-9370000D01*
X15680000Y-7430000D02*
X15720000Y-7470000D01*
X15720000Y-7430000D02*
X15680000Y-7470000D01*
X15705000Y-7955000D02*
X15745000Y-7995000D01*
X15745000Y-7955000D02*
X15705000Y-7995000D01*
X15710000Y-6610000D02*
X15750000Y-6650000D01*
X15750000Y-6610000D02*
X15710000Y-6650000D01*
X15730000Y-12880000D02*
X15770000Y-12920000D01*
X15770000Y-12880000D02*
X15730000Y-12920000D01*
X15780000Y-8780000D02*
X15820000Y-8820000D01*
X15820000Y-8780000D02*
X15780000Y-8820000D01*
X15780000Y-9330000D02*
X15820000Y-9370000D01*
X15820000Y-9330000D02*
X15780000Y-9370000D01*
X15780000Y-13755000D02*
X15820000Y-13795000D01*
X15820000Y-13755000D02*
X15780000Y-13795000D01*
X15780000Y-13855000D02*
X15820000Y-13895000D01*
X15820000Y-13855000D02*
X15780000Y-13895000D01*
X15810000Y-5110000D02*
X15850000Y-5150000D01*
X15850000Y-5110000D02*
X15810000Y-5150000D01*
X15905000Y-8905000D02*
X15945000Y-8945000D01*
X15945000Y-8905000D02*
X15905000Y-8945000D01*
X15905000Y-9055000D02*
X15945000Y-9095000D01*
X15945000Y-9055000D02*
X15905000Y-9095000D01*
X15905000Y-9180000D02*
X15945000Y-9220000D01*
X15945000Y-9180000D02*
X15905000Y-9220000D01*
X15960000Y-7000000D02*
X16000000Y-7040000D01*
X16000000Y-7000000D02*
X15960000Y-7040000D01*
X16000000Y-8210000D02*
X16040000Y-8250000D01*
X16040000Y-8210000D02*
X16000000Y-8250000D01*
X16005000Y-7230000D02*
X16045000Y-7270000D01*
X16045000Y-7230000D02*
X16005000Y-7270000D01*
X16030000Y-12880000D02*
X16070000Y-12920000D01*
X16070000Y-12880000D02*
X16030000Y-12920000D01*
X16040000Y-6680000D02*
X16080000Y-6720000D01*
X16080000Y-6680000D02*
X16040000Y-6720000D01*
X16098500Y-11343000D02*
X16138500Y-11383000D01*
X16138500Y-11343000D02*
X16098500Y-11383000D01*
X16160050Y-6530000D02*
X16200050Y-6570000D01*
X16200050Y-6530000D02*
X16160050Y-6570000D01*
X16167050Y-4755000D02*
X16207050Y-4795000D01*
X16207050Y-4755000D02*
X16167050Y-4795000D01*
X16180000Y-8130000D02*
X16220000Y-8170000D01*
X16220000Y-8130000D02*
X16180000Y-8170000D01*
X16230000Y-6405000D02*
X16270000Y-6445000D01*
X16270000Y-6405000D02*
X16230000Y-6445000D01*
X16230000Y-7130000D02*
X16270000Y-7170000D01*
X16270000Y-7130000D02*
X16230000Y-7170000D01*
X16270000Y-4990000D02*
X16310000Y-5030000D01*
X16310000Y-4990000D02*
X16270000Y-5030000D01*
X16360000Y-12660000D02*
X16400000Y-12700000D01*
X16400000Y-12660000D02*
X16360000Y-12700000D01*
X16390000Y-6890000D02*
X16430000Y-6930000D01*
X16430000Y-6890000D02*
X16390000Y-6930000D01*
X16410000Y-6160000D02*
X16450000Y-6200000D01*
X16450000Y-6160000D02*
X16410000Y-6200000D01*
X16452698Y-8477698D02*
X16492698Y-8517698D01*
X16492698Y-8477698D02*
X16452698Y-8517698D01*
X16454804Y-8677551D02*
X16494804Y-8717551D01*
X16494804Y-8677551D02*
X16454804Y-8717551D01*
X16455673Y-8577604D02*
X16495673Y-8617604D01*
X16495673Y-8577604D02*
X16455673Y-8617604D01*
X16456185Y-8778629D02*
X16496185Y-8818629D01*
X16496185Y-8778629D02*
X16456185Y-8818629D01*
X16480000Y-6910000D02*
X16520000Y-6950000D01*
X16520000Y-6910000D02*
X16480000Y-6950000D01*
X16480000Y-7655000D02*
X16520000Y-7695000D01*
X16520000Y-7655000D02*
X16480000Y-7695000D01*
X16505000Y-10230000D02*
X16545000Y-10270000D01*
X16545000Y-10230000D02*
X16505000Y-10270000D01*
X16520000Y-5230000D02*
X16560000Y-5270000D01*
X16560000Y-5230000D02*
X16520000Y-5270000D01*
X16533950Y-8130000D02*
X16573950Y-8170000D01*
X16573950Y-8130000D02*
X16533950Y-8170000D01*
X16555000Y-7430000D02*
X16595000Y-7470000D01*
X16595000Y-7430000D02*
X16555000Y-7470000D01*
X16590000Y-12760000D02*
X16630000Y-12800000D01*
X16630000Y-12760000D02*
X16590000Y-12800000D01*
X16600000Y-6890000D02*
X16640000Y-6930000D01*
X16640000Y-6890000D02*
X16600000Y-6930000D01*
X16600000Y-7520000D02*
X16640000Y-7560000D01*
X16640000Y-7520000D02*
X16600000Y-7560000D01*
X16633780Y-8071674D02*
X16673780Y-8111674D01*
X16673780Y-8071674D02*
X16633780Y-8111674D01*
X16650000Y-10670000D02*
X16690000Y-10710000D01*
X16690000Y-10670000D02*
X16650000Y-10710000D01*
X16655000Y-5530000D02*
X16695000Y-5570000D01*
X16695000Y-5530000D02*
X16655000Y-5570000D01*
X16660000Y-10550000D02*
X16700000Y-10590000D01*
X16700000Y-10550000D02*
X16660000Y-10590000D01*
X16670000Y-6410000D02*
X16710000Y-6450000D01*
X16710000Y-6410000D02*
X16670000Y-6450000D01*
X16670000Y-12130000D02*
X16710000Y-12170000D01*
X16710000Y-12130000D02*
X16670000Y-12170000D01*
X16677502Y-5370000D02*
X16717502Y-5410000D01*
X16717502Y-5370000D02*
X16677502Y-5410000D01*
X16677502Y-6000000D02*
X16717502Y-6040000D01*
X16717502Y-6000000D02*
X16677502Y-6040000D01*
X16677502Y-6630000D02*
X16717502Y-6670000D01*
X16717502Y-6630000D02*
X16677502Y-6670000D01*
X16700000Y-10980000D02*
X16740000Y-11020000D01*
X16740000Y-10980000D02*
X16700000Y-11020000D01*
X16706230Y-8153770D02*
X16746230Y-8193770D01*
X16746230Y-8153770D02*
X16706230Y-8193770D01*
X16755000Y-5255000D02*
X16795000Y-5295000D01*
X16795000Y-5255000D02*
X16755000Y-5295000D01*
X16780000Y-12140000D02*
X16820000Y-12180000D01*
X16820000Y-12140000D02*
X16780000Y-12180000D01*
X16781230Y-8228770D02*
X16821230Y-8268770D01*
X16821230Y-8228770D02*
X16781230Y-8268770D01*
X16797454Y-9720000D02*
X16837454Y-9760000D01*
X16837454Y-9720000D02*
X16797454Y-9760000D01*
X16820000Y-4960000D02*
X16860000Y-5000000D01*
X16860000Y-4960000D02*
X16820000Y-5000000D01*
X16840000Y-12954370D02*
X16880000Y-12994370D01*
X16880000Y-12954370D02*
X16840000Y-12994370D01*
X16847402Y-5339950D02*
X16887402Y-5379950D01*
X16887402Y-5339950D02*
X16847402Y-5379950D01*
X16856230Y-8303770D02*
X16896230Y-8343770D01*
X16896230Y-8303770D02*
X16856230Y-8343770D01*
X17032258Y-9750000D02*
X17072258Y-9790000D01*
X17072258Y-9750000D02*
X17032258Y-9790000D01*
X17032258Y-10237176D02*
X17072258Y-10277176D01*
X17072258Y-10237176D02*
X17032258Y-10277176D01*
X17032258Y-10670000D02*
X17072258Y-10710000D01*
X17072258Y-10670000D02*
X17032258Y-10710000D01*
X17040000Y-10560000D02*
X17080000Y-10600000D01*
X17080000Y-10560000D02*
X17040000Y-10600000D01*
X17050000Y-10980000D02*
X17090000Y-11020000D01*
X17090000Y-10980000D02*
X17050000Y-11020000D01*
X17070000Y-12840000D02*
X17110000Y-12880000D01*
X17110000Y-12840000D02*
X17070000Y-12880000D01*
X17070000Y-13090000D02*
X17110000Y-13130000D01*
X17110000Y-13090000D02*
X17070000Y-13130000D01*
X17080000Y-12730000D02*
X17120000Y-12770000D01*
X17120000Y-12730000D02*
X17080000Y-12770000D01*
X17080000Y-12960000D02*
X17120000Y-13000000D01*
X17120000Y-12960000D02*
X17080000Y-13000000D01*
X17090000Y-7910000D02*
X17130000Y-7950000D01*
X17130000Y-7910000D02*
X17090000Y-7950000D01*
X17179398Y-7865301D02*
X17219398Y-7905301D01*
X17219398Y-7865301D02*
X17179398Y-7905301D01*
X17221919Y-5258464D02*
X17261919Y-5298464D01*
X17261919Y-5258464D02*
X17221919Y-5298464D01*
X17240000Y-12240000D02*
X17280000Y-12280000D01*
X17280000Y-12240000D02*
X17240000Y-12280000D01*
X17330000Y-5255000D02*
X17370000Y-5295000D01*
X17370000Y-5255000D02*
X17330000Y-5295000D01*
X17355000Y-12455000D02*
X17395000Y-12495000D01*
X17395000Y-12455000D02*
X17355000Y-12495000D01*
X17494368Y-12235632D02*
X17534368Y-12275632D01*
X17534368Y-12235632D02*
X17494368Y-12275632D01*
X17580000Y-12420000D02*
X17620000Y-12460000D01*
X17620000Y-12420000D02*
X17580000Y-12460000D01*
X17798500Y-10087176D02*
X17838500Y-10127176D01*
X17838500Y-10087176D02*
X17798500Y-10127176D01*
X17805000Y-9955000D02*
X17845000Y-9995000D01*
X17845000Y-9955000D02*
X17805000Y-9995000D01*
X18073500Y-10087176D02*
X18113500Y-10127176D01*
X18113500Y-10087176D02*
X18073500Y-10127176D01*
X18080000Y-9955000D02*
X18120000Y-9995000D01*
X18120000Y-9955000D02*
X18080000Y-9995000D01*
X18140000Y-6910000D02*
X18180000Y-6950000D01*
X18180000Y-6910000D02*
X18140000Y-6950000D01*
X18230000Y-13755000D02*
X18270000Y-13795000D01*
X18270000Y-13755000D02*
X18230000Y-13795000D01*
X18230000Y-13854950D02*
X18270000Y-13894950D01*
X18270000Y-13854950D02*
X18230000Y-13894950D01*
X18530000Y-9380000D02*
X18570000Y-9420000D01*
X18570000Y-9380000D02*
X18530000Y-9420000D01*
X18541230Y-11071230D02*
X18581230Y-11111230D01*
X18581230Y-11071230D02*
X18541230Y-11111230D01*
X18550000Y-10840000D02*
X18590000Y-10880000D01*
X18590000Y-10840000D02*
X18550000Y-10880000D01*
X18598200Y-8692200D02*
X18638200Y-8732200D01*
X18638200Y-8692200D02*
X18598200Y-8732200D01*
X18750000Y-6610000D02*
X18790000Y-6650000D01*
X18790000Y-6610000D02*
X18750000Y-6650000D01*
X18751871Y-9051871D02*
X18791871Y-9091871D01*
X18791871Y-9051871D02*
X18751871Y-9091871D01*
X18754285Y-9384514D02*
X18794285Y-9424514D01*
X18794285Y-9384514D02*
X18754285Y-9424514D01*
X18755000Y-9730000D02*
X18795000Y-9770000D01*
X18795000Y-9730000D02*
X18755000Y-9770000D01*
X18855000Y-8971270D02*
X18895000Y-9011270D01*
X18895000Y-8971270D02*
X18855000Y-9011270D01*
X18880000Y-12985000D02*
X18920000Y-13025000D01*
X18920000Y-12985000D02*
X18880000Y-13025000D01*
X18890000Y-9935000D02*
X18930000Y-9975000D01*
X18930000Y-9935000D02*
X18890000Y-9975000D01*
X18920000Y-13240000D02*
X18960000Y-13280000D01*
X18960000Y-13240000D02*
X18920000Y-13280000D01*
X18920000Y-13400000D02*
X18960000Y-13440000D01*
X18960000Y-13400000D02*
X18920000Y-13440000D01*
X18960000Y-11320000D02*
X19000000Y-11360000D01*
X19000000Y-11320000D02*
X18960000Y-11360000D01*
X18990000Y-9540000D02*
X19030000Y-9580000D01*
X19030000Y-9540000D02*
X18990000Y-9580000D01*
X19055000Y-9105000D02*
X19095000Y-9145000D01*
X19095000Y-9105000D02*
X19055000Y-9145000D01*
X19110442Y-9021836D02*
X19150442Y-9061836D01*
X19150442Y-9021836D02*
X19110442Y-9061836D01*
X19180000Y-9940000D02*
X19220000Y-9980000D01*
X19220000Y-9940000D02*
X19180000Y-9980000D01*
X19180000Y-10050000D02*
X19220000Y-10090000D01*
X19220000Y-10050000D02*
X19180000Y-10090000D01*
X19190000Y-10460000D02*
X19230000Y-10500000D01*
X19230000Y-10460000D02*
X19190000Y-10500000D01*
X19290000Y-7200000D02*
X19330000Y-7240000D01*
X19330000Y-7200000D02*
X19290000Y-7240000D01*
X19294950Y-6200000D02*
X19334950Y-6240000D01*
X19334950Y-6200000D02*
X19294950Y-6240000D01*
X19342221Y-13130836D02*
X19382221Y-13170836D01*
X19382221Y-13130836D02*
X19342221Y-13170836D01*
X19388127Y-5941590D02*
X19428127Y-5981590D01*
X19428127Y-5941590D02*
X19388127Y-5981590D01*
X19430000Y-11880000D02*
X19470000Y-11920000D01*
X19470000Y-11880000D02*
X19430000Y-11920000D01*
X19500000Y-7430000D02*
X19540000Y-7470000D01*
X19540000Y-7430000D02*
X19500000Y-7470000D01*
X19510000Y-8540000D02*
X19550000Y-8580000D01*
X19550000Y-8540000D02*
X19510000Y-8580000D01*
X19587016Y-10722883D02*
X19627016Y-10762883D01*
X19627016Y-10722883D02*
X19587016Y-10762883D01*
X19705000Y-8280000D02*
X19745000Y-8320000D01*
X19745000Y-8280000D02*
X19705000Y-8320000D01*
X19763216Y-9393987D02*
X19803216Y-9433987D01*
X19803216Y-9393987D02*
X19763216Y-9433987D01*
X19835000Y-8265000D02*
X19875000Y-8305000D01*
X19875000Y-8265000D02*
X19835000Y-8305000D01*
X19840000Y-9330000D02*
X19880000Y-9370000D01*
X19880000Y-9330000D02*
X19840000Y-9370000D01*
X19840000Y-10775000D02*
X19880000Y-10815000D01*
X19880000Y-10775000D02*
X19840000Y-10815000D01*
X19850000Y-7795000D02*
X19890000Y-7835000D01*
X19890000Y-7795000D02*
X19850000Y-7835000D01*
D13*
X16747500Y-5026250D02*
G75*
G03*
X16747500Y-5026250I-37500J0D01*
G01*
X17327500Y-5026250D02*
G75*
G03*
X17327500Y-5026250I-37500J0D01*
G01*
D14*
X16567000Y-4616250D02*
X16567000Y-4696250D01*
X16527000Y-4656250D02*
X16607000Y-4656250D01*
D11*
X16527000Y-4626250D02*
X16527000Y-4686250D01*
X16607000Y-4626250D02*
X16607000Y-4686250D01*
X16527000Y-4686250D02*
G75*
G03*
X16607000Y-4686250I40000J0D01*
G01*
X16607000Y-4626250D02*
G75*
G03*
X16527000Y-4626250I-40000J0D01*
G01*
D14*
X16567000Y-5036250D02*
X16567000Y-5116250D01*
X16527000Y-5076250D02*
X16607000Y-5076250D01*
D11*
X16527000Y-5036249D02*
X16527000Y-5116251D01*
X16607000Y-5036249D02*
X16607000Y-5116251D01*
X16527000Y-5116251D02*
G75*
G03*
X16607000Y-5116251I40000J0D01*
G01*
X16607000Y-5036249D02*
G75*
G03*
X16527000Y-5036249I-40000J0D01*
G01*
D14*
X17433000Y-4616250D02*
X17433000Y-4696250D01*
X17393000Y-4656250D02*
X17473000Y-4656250D01*
D11*
X17393000Y-4626250D02*
X17393000Y-4686250D01*
X17473000Y-4626250D02*
X17473000Y-4686250D01*
X17393000Y-4686250D02*
G75*
G03*
X17473000Y-4686250I40000J0D01*
G01*
X17473000Y-4626250D02*
G75*
G03*
X17393000Y-4626250I-40000J0D01*
G01*
D14*
X17433000Y-5036250D02*
X17433000Y-5116250D01*
X17393000Y-5076250D02*
X17473000Y-5076250D01*
D11*
X17393000Y-5036251D02*
X17393000Y-5116249D01*
X17473000Y-5036251D02*
X17473000Y-5116249D01*
X17393000Y-5116249D02*
G75*
G03*
X17473000Y-5116249I40000J0D01*
G01*
X17473000Y-5036251D02*
G75*
G03*
X17393000Y-5036251I-40000J0D01*
G01*
X14252619Y-14465476D02*
X14252619Y-14265476D01*
X14300238Y-14265476D01*
X14328809Y-14275000D01*
X14347857Y-14294048D01*
X14357381Y-14313095D01*
X14366905Y-14351190D01*
X14366905Y-14379762D01*
X14357381Y-14417857D01*
X14347857Y-14436905D01*
X14328809Y-14455952D01*
X14300238Y-14465476D01*
X14252619Y-14465476D01*
X14452619Y-14465476D02*
X14452619Y-14332143D01*
X14452619Y-14370238D02*
X14462143Y-14351190D01*
X14471667Y-14341667D01*
X14490714Y-14332143D01*
X14509762Y-14332143D01*
X14576428Y-14465476D02*
X14576428Y-14332143D01*
X14576428Y-14265476D02*
X14566905Y-14275000D01*
X14576428Y-14284524D01*
X14585952Y-14275000D01*
X14576428Y-14265476D01*
X14576428Y-14284524D01*
X14700238Y-14465476D02*
X14681190Y-14455952D01*
X14671667Y-14436905D01*
X14671667Y-14265476D01*
X14805000Y-14465476D02*
X14785952Y-14455952D01*
X14776428Y-14436905D01*
X14776428Y-14265476D01*
X15033571Y-14465476D02*
X15033571Y-14265476D01*
X15100238Y-14408333D01*
X15166905Y-14265476D01*
X15166905Y-14465476D01*
X15347857Y-14465476D02*
X15347857Y-14360714D01*
X15338333Y-14341667D01*
X15319286Y-14332143D01*
X15281190Y-14332143D01*
X15262143Y-14341667D01*
X15347857Y-14455952D02*
X15328809Y-14465476D01*
X15281190Y-14465476D01*
X15262143Y-14455952D01*
X15252619Y-14436905D01*
X15252619Y-14417857D01*
X15262143Y-14398809D01*
X15281190Y-14389286D01*
X15328809Y-14389286D01*
X15347857Y-14379762D01*
X15443095Y-14332143D02*
X15443095Y-14532143D01*
X15443095Y-14341667D02*
X15462143Y-14332143D01*
X15500238Y-14332143D01*
X15519286Y-14341667D01*
X15528809Y-14351190D01*
X15538333Y-14370238D01*
X15538333Y-14427381D01*
X15528809Y-14446428D01*
X15519286Y-14455952D01*
X15500238Y-14465476D01*
X15462143Y-14465476D01*
X15443095Y-14455952D01*
X15624048Y-14446428D02*
X15633571Y-14455952D01*
X15624048Y-14465476D01*
X15614524Y-14455952D01*
X15624048Y-14446428D01*
X15624048Y-14465476D01*
X15624048Y-14341667D02*
X15633571Y-14351190D01*
X15624048Y-14360714D01*
X15614524Y-14351190D01*
X15624048Y-14341667D01*
X15624048Y-14360714D01*
D12*
X13955000Y-14775000D02*
X13995000Y-14815000D01*
X13995000Y-14775000D02*
X13955000Y-14815000D01*
D11*
X14290714Y-14685476D02*
X14309762Y-14685476D01*
X14328809Y-14695000D01*
X14338333Y-14704524D01*
X14347857Y-14723571D01*
X14357381Y-14761667D01*
X14357381Y-14809286D01*
X14347857Y-14847381D01*
X14338333Y-14866428D01*
X14328809Y-14875952D01*
X14309762Y-14885476D01*
X14290714Y-14885476D01*
X14271667Y-14875952D01*
X14262143Y-14866428D01*
X14252619Y-14847381D01*
X14243095Y-14809286D01*
X14243095Y-14761667D01*
X14252619Y-14723571D01*
X14262143Y-14704524D01*
X14271667Y-14695000D01*
X14290714Y-14685476D01*
X14443095Y-14866428D02*
X14452619Y-14875952D01*
X14443095Y-14885476D01*
X14433571Y-14875952D01*
X14443095Y-14866428D01*
X14443095Y-14885476D01*
X14624048Y-14752143D02*
X14624048Y-14885476D01*
X14576428Y-14675952D02*
X14528809Y-14818809D01*
X14652619Y-14818809D01*
X14766905Y-14685476D02*
X14785952Y-14685476D01*
X14805000Y-14695000D01*
X14814524Y-14704524D01*
X14824048Y-14723571D01*
X14833571Y-14761667D01*
X14833571Y-14809286D01*
X14824048Y-14847381D01*
X14814524Y-14866428D01*
X14805000Y-14875952D01*
X14785952Y-14885476D01*
X14766905Y-14885476D01*
X14747857Y-14875952D01*
X14738333Y-14866428D01*
X14728809Y-14847381D01*
X14719286Y-14809286D01*
X14719286Y-14761667D01*
X14728809Y-14723571D01*
X14738333Y-14704524D01*
X14747857Y-14695000D01*
X14766905Y-14685476D01*
X14957381Y-14685476D02*
X14976428Y-14685476D01*
X14995476Y-14695000D01*
X15005000Y-14704524D01*
X15014524Y-14723571D01*
X15024048Y-14761667D01*
X15024048Y-14809286D01*
X15014524Y-14847381D01*
X15005000Y-14866428D01*
X14995476Y-14875952D01*
X14976428Y-14885476D01*
X14957381Y-14885476D01*
X14938333Y-14875952D01*
X14928809Y-14866428D01*
X14919286Y-14847381D01*
X14909762Y-14809286D01*
X14909762Y-14761667D01*
X14919286Y-14723571D01*
X14928809Y-14704524D01*
X14938333Y-14695000D01*
X14957381Y-14685476D01*
X15109762Y-14885476D02*
X15109762Y-14752143D01*
X15109762Y-14771190D02*
X15119286Y-14761667D01*
X15138333Y-14752143D01*
X15166905Y-14752143D01*
X15185952Y-14761667D01*
X15195476Y-14780714D01*
X15195476Y-14885476D01*
X15195476Y-14780714D02*
X15205000Y-14761667D01*
X15224048Y-14752143D01*
X15252619Y-14752143D01*
X15271667Y-14761667D01*
X15281190Y-14780714D01*
X15281190Y-14885476D01*
X15376428Y-14885476D02*
X15376428Y-14752143D01*
X15376428Y-14771190D02*
X15385952Y-14761667D01*
X15405000Y-14752143D01*
X15433571Y-14752143D01*
X15452619Y-14761667D01*
X15462143Y-14780714D01*
X15462143Y-14885476D01*
X15462143Y-14780714D02*
X15471667Y-14761667D01*
X15490714Y-14752143D01*
X15519286Y-14752143D01*
X15538333Y-14761667D01*
X15547857Y-14780714D01*
X15547857Y-14885476D01*
X15938333Y-14675952D02*
X15766905Y-14933095D01*
X16195476Y-14685476D02*
X16214524Y-14685476D01*
X16233571Y-14695000D01*
X16243095Y-14704524D01*
X16252619Y-14723571D01*
X16262143Y-14761667D01*
X16262143Y-14809286D01*
X16252619Y-14847381D01*
X16243095Y-14866428D01*
X16233571Y-14875952D01*
X16214524Y-14885476D01*
X16195476Y-14885476D01*
X16176428Y-14875952D01*
X16166905Y-14866428D01*
X16157381Y-14847381D01*
X16147857Y-14809286D01*
X16147857Y-14761667D01*
X16157381Y-14723571D01*
X16166905Y-14704524D01*
X16176428Y-14695000D01*
X16195476Y-14685476D01*
X16347857Y-14866428D02*
X16357381Y-14875952D01*
X16347857Y-14885476D01*
X16338333Y-14875952D01*
X16347857Y-14866428D01*
X16347857Y-14885476D01*
X16481190Y-14685476D02*
X16500238Y-14685476D01*
X16519286Y-14695000D01*
X16528809Y-14704524D01*
X16538333Y-14723571D01*
X16547857Y-14761667D01*
X16547857Y-14809286D01*
X16538333Y-14847381D01*
X16528809Y-14866428D01*
X16519286Y-14875952D01*
X16500238Y-14885476D01*
X16481190Y-14885476D01*
X16462143Y-14875952D01*
X16452619Y-14866428D01*
X16443095Y-14847381D01*
X16433571Y-14809286D01*
X16433571Y-14761667D01*
X16443095Y-14723571D01*
X16452619Y-14704524D01*
X16462143Y-14695000D01*
X16481190Y-14685476D01*
X16738333Y-14885476D02*
X16624048Y-14885476D01*
X16681190Y-14885476D02*
X16681190Y-14685476D01*
X16662143Y-14714048D01*
X16643095Y-14733095D01*
X16624048Y-14742619D01*
X16919286Y-14685476D02*
X16824048Y-14685476D01*
X16814524Y-14780714D01*
X16824048Y-14771190D01*
X16843095Y-14761667D01*
X16890714Y-14761667D01*
X16909762Y-14771190D01*
X16919286Y-14780714D01*
X16928810Y-14799762D01*
X16928810Y-14847381D01*
X16919286Y-14866428D01*
X16909762Y-14875952D01*
X16890714Y-14885476D01*
X16843095Y-14885476D01*
X16824048Y-14875952D01*
X16814524Y-14866428D01*
X16995476Y-14685476D02*
X17128810Y-14685476D01*
X17043095Y-14885476D01*
X17195476Y-14685476D02*
X17195476Y-14723571D01*
X17271667Y-14685476D02*
X17271667Y-14723571D01*
X17566905Y-14961667D02*
X17557381Y-14952143D01*
X17538333Y-14923571D01*
X17528810Y-14904524D01*
X17519286Y-14875952D01*
X17509762Y-14828333D01*
X17509762Y-14790238D01*
X17519286Y-14742619D01*
X17528810Y-14714048D01*
X17538333Y-14695000D01*
X17557381Y-14666428D01*
X17566905Y-14656905D01*
X17747857Y-14885476D02*
X17633571Y-14885476D01*
X17690714Y-14885476D02*
X17690714Y-14685476D01*
X17671667Y-14714048D01*
X17652619Y-14733095D01*
X17633571Y-14742619D01*
X17919286Y-14752143D02*
X17919286Y-14885476D01*
X17871667Y-14675952D02*
X17824048Y-14818809D01*
X17947857Y-14818809D01*
X18033571Y-14885476D02*
X18071667Y-14885476D01*
X18090714Y-14875952D01*
X18100238Y-14866428D01*
X18119286Y-14837857D01*
X18128810Y-14799762D01*
X18128810Y-14723571D01*
X18119286Y-14704524D01*
X18109762Y-14695000D01*
X18090714Y-14685476D01*
X18052619Y-14685476D01*
X18033571Y-14695000D01*
X18024048Y-14704524D01*
X18014524Y-14723571D01*
X18014524Y-14771190D01*
X18024048Y-14790238D01*
X18033571Y-14799762D01*
X18052619Y-14809286D01*
X18090714Y-14809286D01*
X18109762Y-14799762D01*
X18119286Y-14790238D01*
X18128810Y-14771190D01*
X18366905Y-14885476D02*
X18366905Y-14685476D01*
X18452619Y-14885476D02*
X18452619Y-14780714D01*
X18443095Y-14761667D01*
X18424048Y-14752143D01*
X18395476Y-14752143D01*
X18376429Y-14761667D01*
X18366905Y-14771190D01*
X18576429Y-14885476D02*
X18557381Y-14875952D01*
X18547857Y-14866428D01*
X18538333Y-14847381D01*
X18538333Y-14790238D01*
X18547857Y-14771190D01*
X18557381Y-14761667D01*
X18576429Y-14752143D01*
X18605000Y-14752143D01*
X18624048Y-14761667D01*
X18633571Y-14771190D01*
X18643095Y-14790238D01*
X18643095Y-14847381D01*
X18633571Y-14866428D01*
X18624048Y-14875952D01*
X18605000Y-14885476D01*
X18576429Y-14885476D01*
X18757381Y-14885476D02*
X18738333Y-14875952D01*
X18728810Y-14856905D01*
X18728810Y-14685476D01*
X18909762Y-14875952D02*
X18890714Y-14885476D01*
X18852619Y-14885476D01*
X18833571Y-14875952D01*
X18824048Y-14856905D01*
X18824048Y-14780714D01*
X18833571Y-14761667D01*
X18852619Y-14752143D01*
X18890714Y-14752143D01*
X18909762Y-14761667D01*
X18919286Y-14780714D01*
X18919286Y-14799762D01*
X18824048Y-14818809D01*
X18995476Y-14875952D02*
X19014524Y-14885476D01*
X19052619Y-14885476D01*
X19071667Y-14875952D01*
X19081190Y-14856905D01*
X19081190Y-14847381D01*
X19071667Y-14828333D01*
X19052619Y-14818809D01*
X19024048Y-14818809D01*
X19005000Y-14809286D01*
X18995476Y-14790238D01*
X18995476Y-14780714D01*
X19005000Y-14761667D01*
X19024048Y-14752143D01*
X19052619Y-14752143D01*
X19071667Y-14761667D01*
X19147857Y-14961667D02*
X19157381Y-14952143D01*
X19176429Y-14923571D01*
X19185952Y-14904524D01*
X19195476Y-14875952D01*
X19205000Y-14828333D01*
X19205000Y-14790238D01*
X19195476Y-14742619D01*
X19185952Y-14714048D01*
X19176429Y-14695000D01*
X19157381Y-14666428D01*
X19147857Y-14656905D01*
D13*
X13995000Y-15059000D02*
G75*
G03*
X13995000Y-15059000I-37500J0D01*
G01*
D11*
X14290714Y-14949476D02*
X14309762Y-14949476D01*
X14328809Y-14959000D01*
X14338333Y-14968524D01*
X14347857Y-14987571D01*
X14357381Y-15025667D01*
X14357381Y-15073286D01*
X14347857Y-15111381D01*
X14338333Y-15130428D01*
X14328809Y-15139952D01*
X14309762Y-15149476D01*
X14290714Y-15149476D01*
X14271667Y-15139952D01*
X14262143Y-15130428D01*
X14252619Y-15111381D01*
X14243095Y-15073286D01*
X14243095Y-15025667D01*
X14252619Y-14987571D01*
X14262143Y-14968524D01*
X14271667Y-14959000D01*
X14290714Y-14949476D01*
X14443095Y-15130428D02*
X14452619Y-15139952D01*
X14443095Y-15149476D01*
X14433571Y-15139952D01*
X14443095Y-15130428D01*
X14443095Y-15149476D01*
X14519286Y-14949476D02*
X14652619Y-14949476D01*
X14566905Y-15149476D01*
X14824048Y-14949476D02*
X14728809Y-14949476D01*
X14719286Y-15044714D01*
X14728809Y-15035190D01*
X14747857Y-15025667D01*
X14795476Y-15025667D01*
X14814524Y-15035190D01*
X14824048Y-15044714D01*
X14833571Y-15063762D01*
X14833571Y-15111381D01*
X14824048Y-15130428D01*
X14814524Y-15139952D01*
X14795476Y-15149476D01*
X14747857Y-15149476D01*
X14728809Y-15139952D01*
X14719286Y-15130428D01*
X14957381Y-14949476D02*
X14976428Y-14949476D01*
X14995476Y-14959000D01*
X15005000Y-14968524D01*
X15014524Y-14987571D01*
X15024048Y-15025667D01*
X15024048Y-15073286D01*
X15014524Y-15111381D01*
X15005000Y-15130428D01*
X14995476Y-15139952D01*
X14976428Y-15149476D01*
X14957381Y-15149476D01*
X14938333Y-15139952D01*
X14928809Y-15130428D01*
X14919286Y-15111381D01*
X14909762Y-15073286D01*
X14909762Y-15025667D01*
X14919286Y-14987571D01*
X14928809Y-14968524D01*
X14938333Y-14959000D01*
X14957381Y-14949476D01*
X15109762Y-15149476D02*
X15109762Y-15016143D01*
X15109762Y-15035190D02*
X15119286Y-15025667D01*
X15138333Y-15016143D01*
X15166905Y-15016143D01*
X15185952Y-15025667D01*
X15195476Y-15044714D01*
X15195476Y-15149476D01*
X15195476Y-15044714D02*
X15205000Y-15025667D01*
X15224048Y-15016143D01*
X15252619Y-15016143D01*
X15271667Y-15025667D01*
X15281190Y-15044714D01*
X15281190Y-15149476D01*
X15376428Y-15149476D02*
X15376428Y-15016143D01*
X15376428Y-15035190D02*
X15385952Y-15025667D01*
X15405000Y-15016143D01*
X15433571Y-15016143D01*
X15452619Y-15025667D01*
X15462143Y-15044714D01*
X15462143Y-15149476D01*
X15462143Y-15044714D02*
X15471667Y-15025667D01*
X15490714Y-15016143D01*
X15519286Y-15016143D01*
X15538333Y-15025667D01*
X15547857Y-15044714D01*
X15547857Y-15149476D01*
X15938333Y-14939952D02*
X15766905Y-15197095D01*
X16195476Y-14949476D02*
X16214524Y-14949476D01*
X16233571Y-14959000D01*
X16243095Y-14968524D01*
X16252619Y-14987571D01*
X16262143Y-15025667D01*
X16262143Y-15073286D01*
X16252619Y-15111381D01*
X16243095Y-15130428D01*
X16233571Y-15139952D01*
X16214524Y-15149476D01*
X16195476Y-15149476D01*
X16176428Y-15139952D01*
X16166905Y-15130428D01*
X16157381Y-15111381D01*
X16147857Y-15073286D01*
X16147857Y-15025667D01*
X16157381Y-14987571D01*
X16166905Y-14968524D01*
X16176428Y-14959000D01*
X16195476Y-14949476D01*
X16347857Y-15130428D02*
X16357381Y-15139952D01*
X16347857Y-15149476D01*
X16338333Y-15139952D01*
X16347857Y-15130428D01*
X16347857Y-15149476D01*
X16481190Y-14949476D02*
X16500238Y-14949476D01*
X16519286Y-14959000D01*
X16528809Y-14968524D01*
X16538333Y-14987571D01*
X16547857Y-15025667D01*
X16547857Y-15073286D01*
X16538333Y-15111381D01*
X16528809Y-15130428D01*
X16519286Y-15139952D01*
X16500238Y-15149476D01*
X16481190Y-15149476D01*
X16462143Y-15139952D01*
X16452619Y-15130428D01*
X16443095Y-15111381D01*
X16433571Y-15073286D01*
X16433571Y-15025667D01*
X16443095Y-14987571D01*
X16452619Y-14968524D01*
X16462143Y-14959000D01*
X16481190Y-14949476D01*
X16624048Y-14968524D02*
X16633571Y-14959000D01*
X16652619Y-14949476D01*
X16700238Y-14949476D01*
X16719286Y-14959000D01*
X16728809Y-14968524D01*
X16738333Y-14987571D01*
X16738333Y-15006619D01*
X16728809Y-15035190D01*
X16614524Y-15149476D01*
X16738333Y-15149476D01*
X16833571Y-15149476D02*
X16871667Y-15149476D01*
X16890714Y-15139952D01*
X16900238Y-15130428D01*
X16919286Y-15101857D01*
X16928810Y-15063762D01*
X16928810Y-14987571D01*
X16919286Y-14968524D01*
X16909762Y-14959000D01*
X16890714Y-14949476D01*
X16852619Y-14949476D01*
X16833571Y-14959000D01*
X16824048Y-14968524D01*
X16814524Y-14987571D01*
X16814524Y-15035190D01*
X16824048Y-15054238D01*
X16833571Y-15063762D01*
X16852619Y-15073286D01*
X16890714Y-15073286D01*
X16909762Y-15063762D01*
X16919286Y-15054238D01*
X16928810Y-15035190D01*
X17109762Y-14949476D02*
X17014524Y-14949476D01*
X17005000Y-15044714D01*
X17014524Y-15035190D01*
X17033571Y-15025667D01*
X17081190Y-15025667D01*
X17100238Y-15035190D01*
X17109762Y-15044714D01*
X17119286Y-15063762D01*
X17119286Y-15111381D01*
X17109762Y-15130428D01*
X17100238Y-15139952D01*
X17081190Y-15149476D01*
X17033571Y-15149476D01*
X17014524Y-15139952D01*
X17005000Y-15130428D01*
X17195476Y-14949476D02*
X17195476Y-14987571D01*
X17271667Y-14949476D02*
X17271667Y-14987571D01*
X17566905Y-15225667D02*
X17557381Y-15216143D01*
X17538333Y-15187571D01*
X17528810Y-15168524D01*
X17519286Y-15139952D01*
X17509762Y-15092333D01*
X17509762Y-15054238D01*
X17519286Y-15006619D01*
X17528810Y-14978048D01*
X17538333Y-14959000D01*
X17557381Y-14930428D01*
X17566905Y-14920905D01*
X17633571Y-14968524D02*
X17643095Y-14959000D01*
X17662143Y-14949476D01*
X17709762Y-14949476D01*
X17728810Y-14959000D01*
X17738333Y-14968524D01*
X17747857Y-14987571D01*
X17747857Y-15006619D01*
X17738333Y-15035190D01*
X17624048Y-15149476D01*
X17747857Y-15149476D01*
X17985952Y-15149476D02*
X17985952Y-14949476D01*
X18071667Y-15149476D02*
X18071667Y-15044714D01*
X18062143Y-15025667D01*
X18043095Y-15016143D01*
X18014524Y-15016143D01*
X17995476Y-15025667D01*
X17985952Y-15035190D01*
X18195476Y-15149476D02*
X18176429Y-15139952D01*
X18166905Y-15130428D01*
X18157381Y-15111381D01*
X18157381Y-15054238D01*
X18166905Y-15035190D01*
X18176429Y-15025667D01*
X18195476Y-15016143D01*
X18224048Y-15016143D01*
X18243095Y-15025667D01*
X18252619Y-15035190D01*
X18262143Y-15054238D01*
X18262143Y-15111381D01*
X18252619Y-15130428D01*
X18243095Y-15139952D01*
X18224048Y-15149476D01*
X18195476Y-15149476D01*
X18376429Y-15149476D02*
X18357381Y-15139952D01*
X18347857Y-15120905D01*
X18347857Y-14949476D01*
X18528810Y-15139952D02*
X18509762Y-15149476D01*
X18471667Y-15149476D01*
X18452619Y-15139952D01*
X18443095Y-15120905D01*
X18443095Y-15044714D01*
X18452619Y-15025667D01*
X18471667Y-15016143D01*
X18509762Y-15016143D01*
X18528810Y-15025667D01*
X18538333Y-15044714D01*
X18538333Y-15063762D01*
X18443095Y-15082809D01*
X18614524Y-15139952D02*
X18633571Y-15149476D01*
X18671667Y-15149476D01*
X18690714Y-15139952D01*
X18700238Y-15120905D01*
X18700238Y-15111381D01*
X18690714Y-15092333D01*
X18671667Y-15082809D01*
X18643095Y-15082809D01*
X18624048Y-15073286D01*
X18614524Y-15054238D01*
X18614524Y-15044714D01*
X18624048Y-15025667D01*
X18643095Y-15016143D01*
X18671667Y-15016143D01*
X18690714Y-15025667D01*
X18766905Y-15225667D02*
X18776429Y-15216143D01*
X18795476Y-15187571D01*
X18805000Y-15168524D01*
X18814524Y-15139952D01*
X18824048Y-15092333D01*
X18824048Y-15054238D01*
X18814524Y-15006619D01*
X18805000Y-14978048D01*
X18795476Y-14959000D01*
X18776429Y-14930428D01*
X18766905Y-14920905D01*
D14*
X13955000Y-15283000D02*
X13955000Y-15363000D01*
X13915000Y-15323000D02*
X13995000Y-15323000D01*
D11*
X14290714Y-15213476D02*
X14309762Y-15213476D01*
X14328809Y-15223000D01*
X14338333Y-15232524D01*
X14347857Y-15251571D01*
X14357381Y-15289667D01*
X14357381Y-15337286D01*
X14347857Y-15375381D01*
X14338333Y-15394428D01*
X14328809Y-15403952D01*
X14309762Y-15413476D01*
X14290714Y-15413476D01*
X14271667Y-15403952D01*
X14262143Y-15394428D01*
X14252619Y-15375381D01*
X14243095Y-15337286D01*
X14243095Y-15289667D01*
X14252619Y-15251571D01*
X14262143Y-15232524D01*
X14271667Y-15223000D01*
X14290714Y-15213476D01*
X14443095Y-15394428D02*
X14452619Y-15403952D01*
X14443095Y-15413476D01*
X14433571Y-15403952D01*
X14443095Y-15394428D01*
X14443095Y-15413476D01*
X14566905Y-15299190D02*
X14547857Y-15289667D01*
X14538333Y-15280143D01*
X14528809Y-15261095D01*
X14528809Y-15251571D01*
X14538333Y-15232524D01*
X14547857Y-15223000D01*
X14566905Y-15213476D01*
X14605000Y-15213476D01*
X14624048Y-15223000D01*
X14633571Y-15232524D01*
X14643095Y-15251571D01*
X14643095Y-15261095D01*
X14633571Y-15280143D01*
X14624048Y-15289667D01*
X14605000Y-15299190D01*
X14566905Y-15299190D01*
X14547857Y-15308714D01*
X14538333Y-15318238D01*
X14528809Y-15337286D01*
X14528809Y-15375381D01*
X14538333Y-15394428D01*
X14547857Y-15403952D01*
X14566905Y-15413476D01*
X14605000Y-15413476D01*
X14624048Y-15403952D01*
X14633571Y-15394428D01*
X14643095Y-15375381D01*
X14643095Y-15337286D01*
X14633571Y-15318238D01*
X14624048Y-15308714D01*
X14605000Y-15299190D01*
X14766905Y-15213476D02*
X14785952Y-15213476D01*
X14805000Y-15223000D01*
X14814524Y-15232524D01*
X14824048Y-15251571D01*
X14833571Y-15289667D01*
X14833571Y-15337286D01*
X14824048Y-15375381D01*
X14814524Y-15394428D01*
X14805000Y-15403952D01*
X14785952Y-15413476D01*
X14766905Y-15413476D01*
X14747857Y-15403952D01*
X14738333Y-15394428D01*
X14728809Y-15375381D01*
X14719286Y-15337286D01*
X14719286Y-15289667D01*
X14728809Y-15251571D01*
X14738333Y-15232524D01*
X14747857Y-15223000D01*
X14766905Y-15213476D01*
X14957381Y-15213476D02*
X14976428Y-15213476D01*
X14995476Y-15223000D01*
X15005000Y-15232524D01*
X15014524Y-15251571D01*
X15024048Y-15289667D01*
X15024048Y-15337286D01*
X15014524Y-15375381D01*
X15005000Y-15394428D01*
X14995476Y-15403952D01*
X14976428Y-15413476D01*
X14957381Y-15413476D01*
X14938333Y-15403952D01*
X14928809Y-15394428D01*
X14919286Y-15375381D01*
X14909762Y-15337286D01*
X14909762Y-15289667D01*
X14919286Y-15251571D01*
X14928809Y-15232524D01*
X14938333Y-15223000D01*
X14957381Y-15213476D01*
X15109762Y-15413476D02*
X15109762Y-15280143D01*
X15109762Y-15299190D02*
X15119286Y-15289667D01*
X15138333Y-15280143D01*
X15166905Y-15280143D01*
X15185952Y-15289667D01*
X15195476Y-15308714D01*
X15195476Y-15413476D01*
X15195476Y-15308714D02*
X15205000Y-15289667D01*
X15224048Y-15280143D01*
X15252619Y-15280143D01*
X15271667Y-15289667D01*
X15281190Y-15308714D01*
X15281190Y-15413476D01*
X15376428Y-15413476D02*
X15376428Y-15280143D01*
X15376428Y-15299190D02*
X15385952Y-15289667D01*
X15405000Y-15280143D01*
X15433571Y-15280143D01*
X15452619Y-15289667D01*
X15462143Y-15308714D01*
X15462143Y-15413476D01*
X15462143Y-15308714D02*
X15471667Y-15289667D01*
X15490714Y-15280143D01*
X15519286Y-15280143D01*
X15538333Y-15289667D01*
X15547857Y-15308714D01*
X15547857Y-15413476D01*
X15938333Y-15203952D02*
X15766905Y-15461095D01*
X16195476Y-15213476D02*
X16214524Y-15213476D01*
X16233571Y-15223000D01*
X16243095Y-15232524D01*
X16252619Y-15251571D01*
X16262143Y-15289667D01*
X16262143Y-15337286D01*
X16252619Y-15375381D01*
X16243095Y-15394428D01*
X16233571Y-15403952D01*
X16214524Y-15413476D01*
X16195476Y-15413476D01*
X16176428Y-15403952D01*
X16166905Y-15394428D01*
X16157381Y-15375381D01*
X16147857Y-15337286D01*
X16147857Y-15289667D01*
X16157381Y-15251571D01*
X16166905Y-15232524D01*
X16176428Y-15223000D01*
X16195476Y-15213476D01*
X16347857Y-15394428D02*
X16357381Y-15403952D01*
X16347857Y-15413476D01*
X16338333Y-15403952D01*
X16347857Y-15394428D01*
X16347857Y-15413476D01*
X16481190Y-15213476D02*
X16500238Y-15213476D01*
X16519286Y-15223000D01*
X16528809Y-15232524D01*
X16538333Y-15251571D01*
X16547857Y-15289667D01*
X16547857Y-15337286D01*
X16538333Y-15375381D01*
X16528809Y-15394428D01*
X16519286Y-15403952D01*
X16500238Y-15413476D01*
X16481190Y-15413476D01*
X16462143Y-15403952D01*
X16452619Y-15394428D01*
X16443095Y-15375381D01*
X16433571Y-15337286D01*
X16433571Y-15289667D01*
X16443095Y-15251571D01*
X16452619Y-15232524D01*
X16462143Y-15223000D01*
X16481190Y-15213476D01*
X16614524Y-15213476D02*
X16738333Y-15213476D01*
X16671667Y-15289667D01*
X16700238Y-15289667D01*
X16719286Y-15299190D01*
X16728809Y-15308714D01*
X16738333Y-15327762D01*
X16738333Y-15375381D01*
X16728809Y-15394428D01*
X16719286Y-15403952D01*
X16700238Y-15413476D01*
X16643095Y-15413476D01*
X16624048Y-15403952D01*
X16614524Y-15394428D01*
X16928810Y-15413476D02*
X16814524Y-15413476D01*
X16871667Y-15413476D02*
X16871667Y-15213476D01*
X16852619Y-15242048D01*
X16833571Y-15261095D01*
X16814524Y-15270619D01*
X17109762Y-15213476D02*
X17014524Y-15213476D01*
X17005000Y-15308714D01*
X17014524Y-15299190D01*
X17033571Y-15289667D01*
X17081190Y-15289667D01*
X17100238Y-15299190D01*
X17109762Y-15308714D01*
X17119286Y-15327762D01*
X17119286Y-15375381D01*
X17109762Y-15394428D01*
X17100238Y-15403952D01*
X17081190Y-15413476D01*
X17033571Y-15413476D01*
X17014524Y-15403952D01*
X17005000Y-15394428D01*
X17195476Y-15213476D02*
X17195476Y-15251571D01*
X17271667Y-15213476D02*
X17271667Y-15251571D01*
X17566905Y-15489667D02*
X17557381Y-15480143D01*
X17538333Y-15451571D01*
X17528810Y-15432524D01*
X17519286Y-15403952D01*
X17509762Y-15356333D01*
X17509762Y-15318238D01*
X17519286Y-15270619D01*
X17528810Y-15242048D01*
X17538333Y-15223000D01*
X17557381Y-15194428D01*
X17566905Y-15184905D01*
X17681190Y-15213476D02*
X17700238Y-15213476D01*
X17719286Y-15223000D01*
X17728810Y-15232524D01*
X17738333Y-15251571D01*
X17747857Y-15289667D01*
X17747857Y-15337286D01*
X17738333Y-15375381D01*
X17728810Y-15394428D01*
X17719286Y-15403952D01*
X17700238Y-15413476D01*
X17681190Y-15413476D01*
X17662143Y-15403952D01*
X17652619Y-15394428D01*
X17643095Y-15375381D01*
X17633571Y-15337286D01*
X17633571Y-15289667D01*
X17643095Y-15251571D01*
X17652619Y-15232524D01*
X17662143Y-15223000D01*
X17681190Y-15213476D01*
X17985952Y-15413476D02*
X17985952Y-15213476D01*
X18071667Y-15413476D02*
X18071667Y-15308714D01*
X18062143Y-15289667D01*
X18043095Y-15280143D01*
X18014524Y-15280143D01*
X17995476Y-15289667D01*
X17985952Y-15299190D01*
X18195476Y-15413476D02*
X18176429Y-15403952D01*
X18166905Y-15394428D01*
X18157381Y-15375381D01*
X18157381Y-15318238D01*
X18166905Y-15299190D01*
X18176429Y-15289667D01*
X18195476Y-15280143D01*
X18224048Y-15280143D01*
X18243095Y-15289667D01*
X18252619Y-15299190D01*
X18262143Y-15318238D01*
X18262143Y-15375381D01*
X18252619Y-15394428D01*
X18243095Y-15403952D01*
X18224048Y-15413476D01*
X18195476Y-15413476D01*
X18376429Y-15413476D02*
X18357381Y-15403952D01*
X18347857Y-15384905D01*
X18347857Y-15213476D01*
X18528810Y-15403952D02*
X18509762Y-15413476D01*
X18471667Y-15413476D01*
X18452619Y-15403952D01*
X18443095Y-15384905D01*
X18443095Y-15308714D01*
X18452619Y-15289667D01*
X18471667Y-15280143D01*
X18509762Y-15280143D01*
X18528810Y-15289667D01*
X18538333Y-15308714D01*
X18538333Y-15327762D01*
X18443095Y-15346809D01*
X18614524Y-15403952D02*
X18633571Y-15413476D01*
X18671667Y-15413476D01*
X18690714Y-15403952D01*
X18700238Y-15384905D01*
X18700238Y-15375381D01*
X18690714Y-15356333D01*
X18671667Y-15346809D01*
X18643095Y-15346809D01*
X18624048Y-15337286D01*
X18614524Y-15318238D01*
X18614524Y-15308714D01*
X18624048Y-15289667D01*
X18643095Y-15280143D01*
X18671667Y-15280143D01*
X18690714Y-15289667D01*
X18938333Y-15337286D02*
X19090714Y-15337286D01*
X19014524Y-15413476D02*
X19014524Y-15261095D01*
X19424048Y-15280143D02*
X19424048Y-15413476D01*
X19376429Y-15203952D02*
X19328810Y-15346809D01*
X19452619Y-15346809D01*
X19671667Y-15403952D02*
X19690714Y-15413476D01*
X19728810Y-15413476D01*
X19747857Y-15403952D01*
X19757381Y-15384905D01*
X19757381Y-15375381D01*
X19747857Y-15356333D01*
X19728810Y-15346809D01*
X19700238Y-15346809D01*
X19681190Y-15337286D01*
X19671667Y-15318238D01*
X19671667Y-15308714D01*
X19681190Y-15289667D01*
X19700238Y-15280143D01*
X19728810Y-15280143D01*
X19747857Y-15289667D01*
X19871667Y-15413476D02*
X19852619Y-15403952D01*
X19843095Y-15384905D01*
X19843095Y-15213476D01*
X19976429Y-15413476D02*
X19957381Y-15403952D01*
X19947857Y-15394428D01*
X19938333Y-15375381D01*
X19938333Y-15318238D01*
X19947857Y-15299190D01*
X19957381Y-15289667D01*
X19976429Y-15280143D01*
X20005000Y-15280143D01*
X20024048Y-15289667D01*
X20033571Y-15299190D01*
X20043095Y-15318238D01*
X20043095Y-15375381D01*
X20033571Y-15394428D01*
X20024048Y-15403952D01*
X20005000Y-15413476D01*
X19976429Y-15413476D01*
X20100238Y-15280143D02*
X20176429Y-15280143D01*
X20128810Y-15213476D02*
X20128810Y-15384905D01*
X20138333Y-15403952D01*
X20157381Y-15413476D01*
X20176429Y-15413476D01*
X20233571Y-15403952D02*
X20252619Y-15413476D01*
X20290714Y-15413476D01*
X20309762Y-15403952D01*
X20319286Y-15384905D01*
X20319286Y-15375381D01*
X20309762Y-15356333D01*
X20290714Y-15346809D01*
X20262143Y-15346809D01*
X20243095Y-15337286D01*
X20233571Y-15318238D01*
X20233571Y-15308714D01*
X20243095Y-15289667D01*
X20262143Y-15280143D01*
X20290714Y-15280143D01*
X20309762Y-15289667D01*
X20385952Y-15489667D02*
X20395476Y-15480143D01*
X20414524Y-15451571D01*
X20424048Y-15432524D01*
X20433571Y-15403952D01*
X20443095Y-15356333D01*
X20443095Y-15318238D01*
X20433571Y-15270619D01*
X20424048Y-15242048D01*
X20414524Y-15223000D01*
X20395476Y-15194428D01*
X20385952Y-15184905D01*
M02*
